<svg width="20" height="17" viewBox="0 0 20 17" fill="none" xmlns="http://www.w3.org/2000/svg">
<g clip-path="url(#clip0_665_77)">
<path d="M8.69603 16.9907C9.30128 16.9907 9.73742 16.5275 9.73742 15.9068V12.3678H9.99553C13.449 12.3678 15.6208 13.2757 17.1784 16.3052C17.49 16.8981 17.8994 16.9907 18.2732 16.9907C18.745 16.9907 19.1899 16.546 19.1899 15.7493C19.1899 8.90299 16.4041 4.63216 9.99553 4.63216H9.73742V1.13025C9.73742 0.509537 9.30127 0 8.67822 0C8.24208 0 7.94836 0.19455 7.47662 0.657766L0.453937 7.49483C0.106809 7.8376 0 8.18038 0 8.49537C0 8.80109 0.11571 9.15314 0.453937 9.48665L7.47662 16.3886C7.90386 16.8054 8.25989 16.9907 8.69603 16.9907Z" fill="#8B8B8B"/>
</g>
<defs>
<clipPath id="clip0_665_77">
<rect width="20" height="17" fill="white"/>
</clipPath>
</defs>
</svg>
