<svg width="390" height="354" viewBox="0 0 390 354" fill="none" xmlns="http://www.w3.org/2000/svg">
<rect width="390" height="354" fill="white"/>
<path d="M132.1 73.1C133.967 73.3667 135.234 73.9333 135.9 74.8C136.634 75.6667 137 76.8 137 78.2C137 82.8 134.534 84.9333 129.6 84.6L126.1 84.3C122.167 83.9667 118.234 83.7 114.3 83.5C110.434 83.3 106.367 83.2 102.1 83.2H97.6004C96.8004 93.0667 95.9671 102.067 95.1004 110.2L112.3 109.9C114.767 109.9 116.4 110.333 117.2 111.2C118.067 112.067 118.5 113.233 118.5 114.7C118.5 116.967 117.834 118.767 116.5 120.1C115.167 121.367 113.267 122 110.8 122H93.7004L93.1004 126.3C91.7004 137.3 88.7004 145.133 84.1004 149.8C79.5671 154.467 73.3004 156.8 65.3004 156.8C60.7671 156.8 56.6004 155.833 52.8004 153.9C49.0004 151.9 46.2004 149.5 44.4004 146.7C43.6671 145.567 43.3004 144.2 43.3004 142.6C43.3004 141 43.6671 139.6 44.4004 138.4C45.2004 137.2 46.1671 136.6 47.3004 136.6C48.1004 136.6 48.8671 136.867 49.6004 137.4C50.4004 137.933 51.4004 138.967 52.6004 140.5C55.8004 144.7 59.7671 146.8 64.5004 146.8C68.3004 146.8 71.4671 145.267 74.0004 142.2C76.6004 139.067 78.2671 134.167 79.0004 127.5L79.6004 122H74.8004C73.2671 122 71.9337 121.567 70.8004 120.7C69.7337 119.833 69.2004 118.6 69.2004 117C69.2004 114.933 69.7337 113.367 70.8004 112.3C71.8671 111.167 73.4337 110.6 75.5004 110.6C77.3671 110.6 79.2004 110.567 81.0004 110.5C81.8004 103.167 82.6671 94.2667 83.6004 83.8C76.4004 84.4667 71.3337 85.6333 68.4004 87.3C65.4671 88.9667 64.0004 91.4333 64.0004 94.7C64.0004 96.9667 64.6671 99.1333 66.0004 101.2C66.4004 101.8 66.6004 102.4 66.6004 103C66.6004 104.2 65.9337 105.267 64.6004 106.2C63.2671 107.067 61.7671 107.5 60.1004 107.5C58.3004 107.5 56.7671 106.967 55.5004 105.9C54.7004 105.233 53.9337 103.867 53.2004 101.8C52.4671 99.7333 52.1004 97.4333 52.1004 94.9C52.1004 86.6333 56.3337 80.6333 64.8004 76.9C73.3337 73.1667 85.7671 71.3 102.1 71.3C113.434 71.3 123.434 71.9 132.1 73.1ZM132.492 156.5C129.958 156.5 128.158 155.167 127.092 152.5C126.092 149.833 125.592 145.567 125.592 139.7C125.592 131.033 126.825 122.8 129.292 115C129.892 113.067 130.858 111.667 132.192 110.8C133.592 109.867 135.525 109.4 137.992 109.4C139.325 109.4 140.258 109.567 140.792 109.9C141.325 110.233 141.592 110.867 141.592 111.8C141.592 112.867 141.092 115.267 140.092 119C139.425 121.667 138.892 124 138.492 126C138.092 128 137.758 130.467 137.492 133.4C139.692 127.667 142.158 123 144.892 119.4C147.625 115.8 150.292 113.233 152.892 111.7C155.558 110.167 157.992 109.4 160.192 109.4C164.525 109.4 166.692 111.567 166.692 115.9C166.692 116.767 166.392 118.867 165.792 122.2C165.258 124.867 164.992 126.533 164.992 127.2C164.992 129.533 165.825 130.7 167.492 130.7C169.358 130.7 171.758 129.233 174.692 126.3C175.558 125.433 176.458 125 177.392 125C178.258 125 178.925 125.4 179.392 126.2C179.925 126.933 180.192 127.933 180.192 129.2C180.192 131.667 179.525 133.6 178.192 135C176.325 136.933 174.125 138.6 171.592 140C169.125 141.333 166.492 142 163.692 142C160.158 142 157.458 141.1 155.592 139.3C153.792 137.5 152.892 135.067 152.892 132C152.892 131 152.992 130 153.192 129C153.325 127.667 153.392 126.767 153.392 126.3C153.392 125.233 153.025 124.7 152.292 124.7C151.292 124.7 149.958 125.833 148.292 128.1C146.692 130.3 145.092 133.233 143.492 136.9C141.892 140.567 140.592 144.433 139.592 148.5C138.858 151.633 137.992 153.767 136.992 154.9C136.058 155.967 134.558 156.5 132.492 156.5ZM189.2 156.5C185.066 156.5 181.766 155 179.3 152C176.833 149 175.6 145.067 175.6 140.2C175.6 134.867 176.833 129.833 179.3 125.1C181.766 120.3 185.033 116.467 189.1 113.6C193.233 110.667 197.6 109.2 202.2 109.2C203.666 109.2 204.633 109.5 205.1 110.1C205.633 110.633 206.066 111.633 206.4 113.1C207.8 112.833 209.266 112.7 210.8 112.7C214.066 112.7 215.7 113.867 215.7 116.2C215.7 117.6 215.2 120.933 214.2 126.2C212.666 133.867 211.9 139.2 211.9 142.2C211.9 143.2 212.133 144 212.6 144.6C213.133 145.2 213.8 145.5 214.6 145.5C215.866 145.5 217.4 144.7 219.2 143.1C221 141.433 223.433 138.767 226.5 135.1C227.3 134.167 228.2 133.7 229.2 133.7C230.066 133.7 230.733 134.1 231.2 134.9C231.733 135.7 232 136.8 232 138.2C232 140.867 231.366 142.933 230.1 144.4C227.366 147.8 224.466 150.667 221.4 153C218.333 155.333 215.366 156.5 212.5 156.5C210.3 156.5 208.266 155.767 206.4 154.3C204.6 152.767 203.233 150.7 202.3 148.1C198.833 153.7 194.466 156.5 189.2 156.5ZM192.8 146.4C194.266 146.4 195.666 145.533 197 143.8C198.333 142.067 199.3 139.767 199.9 136.9L203.6 118.5C200.8 118.567 198.2 119.633 195.8 121.7C193.466 123.7 191.6 126.367 190.2 129.7C188.8 133.033 188.1 136.567 188.1 140.3C188.1 142.367 188.5 143.9 189.3 144.9C190.166 145.9 191.333 146.4 192.8 146.4ZM236.972 156.5C234.439 156.5 232.639 155.167 231.572 152.5C230.572 149.833 230.072 145.567 230.072 139.7C230.072 131.033 231.306 122.8 233.772 115C234.372 113.067 235.339 111.667 236.672 110.8C238.072 109.867 240.006 109.4 242.472 109.4C243.806 109.4 244.739 109.567 245.272 109.9C245.806 110.233 246.072 110.867 246.072 111.8C246.072 112.867 245.572 115.267 244.572 119C243.906 121.667 243.372 124 242.972 126C242.572 127.933 242.239 130.367 241.972 133.3C243.772 128.1 245.906 123.7 248.372 120.1C250.906 116.5 253.472 113.833 256.072 112.1C258.739 110.3 261.239 109.4 263.572 109.4C265.906 109.4 267.539 109.933 268.472 111C269.472 112.067 269.972 113.7 269.972 115.9C269.972 118.033 269.339 121.9 268.072 127.5C267.539 129.9 267.172 131.7 266.972 132.9C270.306 124.7 274.006 118.733 278.072 115C282.139 111.267 285.939 109.4 289.472 109.4C293.806 109.4 295.972 111.567 295.972 115.9C295.972 118.5 295.239 123.2 293.772 130C292.506 135.8 291.872 139.633 291.872 141.5C291.872 144.167 292.839 145.5 294.772 145.5C296.106 145.5 297.672 144.7 299.472 143.1C301.339 141.433 303.806 138.767 306.872 135.1C307.672 134.167 308.572 133.7 309.572 133.7C310.439 133.7 311.106 134.1 311.572 134.9C312.106 135.7 312.372 136.8 312.372 138.2C312.372 140.867 311.739 142.933 310.472 144.4C307.606 147.933 304.506 150.833 301.172 153.1C297.906 155.367 294.172 156.5 289.972 156.5C286.572 156.5 284.006 155.533 282.272 153.6C280.539 151.6 279.672 148.733 279.672 145C279.672 143.133 280.139 139.8 281.072 135C281.939 130.8 282.372 127.9 282.372 126.3C282.372 125.233 282.006 124.7 281.272 124.7C280.406 124.7 279.172 125.833 277.572 128.1C275.972 130.3 274.372 133.233 272.772 136.9C271.172 140.567 269.872 144.433 268.872 148.5C268.139 151.7 267.272 153.833 266.272 154.9C265.339 155.967 263.806 156.5 261.672 156.5C259.472 156.5 257.806 155.467 256.672 153.4C255.606 151.267 255.072 148.7 255.072 145.7C255.072 143.167 255.406 139.5 256.072 134.7C256.606 130.433 256.872 127.633 256.872 126.3C256.872 125.233 256.506 124.7 255.772 124.7C254.772 124.7 253.506 125.9 251.972 128.3C250.439 130.7 248.939 133.767 247.472 137.5C246.072 141.233 244.939 144.9 244.072 148.5C243.339 151.633 242.472 153.767 241.472 154.9C240.539 155.967 239.039 156.5 236.972 156.5ZM346.086 136.7C346.953 136.7 347.62 137.1 348.086 137.9C348.62 138.7 348.886 139.8 348.886 141.2C348.886 143.6 348.32 145.667 347.186 147.4C345.32 150.267 342.853 152.5 339.786 154.1C336.786 155.7 333.186 156.5 328.986 156.5C322.586 156.5 317.62 154.6 314.086 150.8C310.553 146.933 308.786 141.733 308.786 135.2C308.786 130.6 309.753 126.333 311.686 122.4C313.62 118.4 316.286 115.233 319.686 112.9C323.153 110.567 327.053 109.4 331.386 109.4C335.253 109.4 338.353 110.567 340.686 112.9C343.02 115.167 344.186 118.267 344.186 122.2C344.186 126.8 342.52 130.767 339.186 134.1C335.92 137.367 330.32 139.967 322.386 141.9C323.986 144.967 326.686 146.5 330.486 146.5C333.22 146.5 335.453 145.867 337.186 144.6C338.986 143.333 341.053 141.2 343.386 138.2C344.186 137.2 345.086 136.7 346.086 136.7ZM329.686 119.2C327.22 119.2 325.12 120.633 323.386 123.5C321.72 126.367 320.886 129.833 320.886 133.9V134.1C324.82 133.167 327.92 131.767 330.186 129.9C332.453 128.033 333.586 125.867 333.586 123.4C333.586 122.133 333.22 121.133 332.486 120.4C331.82 119.6 330.886 119.2 329.686 119.2ZM166.448 203.1C168.315 203.367 169.581 203.933 170.248 204.8C170.981 205.667 171.348 206.8 171.348 208.2C171.348 212.8 168.881 214.933 163.948 214.6L160.448 214.3C156.515 213.967 152.581 213.7 148.648 213.5C144.781 213.3 140.715 213.2 136.448 213.2H131.948C131.148 223.067 130.315 232.067 129.448 240.2L146.648 239.9C149.115 239.9 150.748 240.333 151.548 241.2C152.415 242.067 152.848 243.233 152.848 244.7C152.848 246.967 152.181 248.767 150.848 250.1C149.515 251.367 147.615 252 145.148 252H128.048L127.448 256.3C126.048 267.3 123.048 275.133 118.448 279.8C113.915 284.467 107.648 286.8 99.648 286.8C95.1147 286.8 90.948 285.833 87.148 283.9C83.348 281.9 80.548 279.5 78.748 276.7C78.0147 275.567 77.648 274.2 77.648 272.6C77.648 271 78.0147 269.6 78.748 268.4C79.548 267.2 80.5147 266.6 81.648 266.6C82.448 266.6 83.2147 266.867 83.948 267.4C84.748 267.933 85.748 268.967 86.948 270.5C90.148 274.7 94.1147 276.8 98.848 276.8C102.648 276.8 105.815 275.267 108.348 272.2C110.948 269.067 112.615 264.167 113.348 257.5L113.948 252H109.148C107.615 252 106.281 251.567 105.148 250.7C104.081 249.833 103.548 248.6 103.548 247C103.548 244.933 104.081 243.367 105.148 242.3C106.215 241.167 107.781 240.6 109.848 240.6C111.715 240.6 113.548 240.567 115.348 240.5C116.148 233.167 117.015 224.267 117.948 213.8C110.748 214.467 105.681 215.633 102.748 217.3C99.8147 218.967 98.348 221.433 98.348 224.7C98.348 226.967 99.0147 229.133 100.348 231.2C100.748 231.8 100.948 232.4 100.948 233C100.948 234.2 100.281 235.267 98.948 236.2C97.6147 237.067 96.1147 237.5 94.448 237.5C92.648 237.5 91.1147 236.967 89.848 235.9C89.048 235.233 88.2814 233.867 87.548 231.8C86.8147 229.733 86.448 227.433 86.448 224.9C86.448 216.633 90.6814 210.633 99.148 206.9C107.681 203.167 120.115 201.3 136.448 201.3C147.781 201.3 157.781 201.9 166.448 203.1ZM197.639 263.7C198.506 263.7 199.173 264.1 199.639 264.9C200.173 265.7 200.439 266.8 200.439 268.2C200.439 270.867 199.806 272.933 198.539 274.4C195.673 277.933 192.539 280.833 189.139 283.1C185.806 285.367 182.006 286.5 177.739 286.5C171.873 286.5 167.506 283.833 164.639 278.5C161.839 273.167 160.439 266.267 160.439 257.8C160.439 249.667 161.473 240.4 163.539 230C165.673 219.6 168.773 210.667 172.839 203.2C176.973 195.733 181.873 192 187.539 192C190.739 192 193.239 193.5 195.039 196.5C196.906 199.433 197.839 203.667 197.839 209.2C197.839 217.133 195.639 226.333 191.239 236.8C186.839 247.267 180.873 257.633 173.339 267.9C173.806 270.633 174.573 272.6 175.639 273.8C176.706 274.933 178.106 275.5 179.839 275.5C182.573 275.5 184.973 274.733 187.039 273.2C189.106 271.6 191.739 268.9 194.939 265.1C195.739 264.167 196.639 263.7 197.639 263.7ZM185.339 201.9C183.806 201.9 182.073 204.667 180.139 210.2C178.206 215.733 176.506 222.6 175.039 230.8C173.573 239 172.773 246.867 172.639 254.4C177.373 246.6 181.139 238.8 183.939 231C186.739 223.133 188.139 215.967 188.139 209.5C188.139 204.433 187.206 201.9 185.339 201.9ZM249.357 255.3C250.223 255.3 250.89 255.733 251.357 256.6C251.823 257.467 252.057 258.567 252.057 259.9C252.057 263.1 251.09 265 249.157 265.6C245.157 267 240.757 267.8 235.957 268C234.69 273.6 232.19 278.1 228.457 281.5C224.723 284.833 220.49 286.5 215.757 286.5C211.757 286.5 208.323 285.533 205.457 283.6C202.657 281.667 200.523 279.1 199.057 275.9C197.59 272.7 196.857 269.233 196.857 265.5C196.857 260.433 197.823 255.933 199.757 252C201.69 248 204.357 244.9 207.757 242.7C211.157 240.433 214.923 239.3 219.057 239.3C224.123 239.3 228.19 241.067 231.257 244.6C234.39 248.067 236.223 252.367 236.757 257.5C239.89 257.3 243.623 256.633 247.957 255.5C248.49 255.367 248.957 255.3 249.357 255.3ZM216.557 275.9C218.69 275.9 220.523 275.033 222.057 273.3C223.657 271.567 224.723 269.067 225.257 265.8C223.19 264.4 221.59 262.567 220.457 260.3C219.39 258.033 218.857 255.633 218.857 253.1C218.857 252.033 218.957 250.967 219.157 249.9H218.657C215.99 249.9 213.757 251.2 211.957 253.8C210.223 256.333 209.357 259.933 209.357 264.6C209.357 268.267 210.057 271.067 211.457 273C212.923 274.933 214.623 275.9 216.557 275.9ZM310.35 239.3C314.017 239.3 315.85 240.467 315.85 242.8C315.85 243.6 315.584 244.7 315.05 246.1C309.65 258.7 304.55 268.867 299.75 276.6C297.35 280.4 295.184 283 293.25 284.4C291.317 285.8 289.117 286.5 286.65 286.5C283.984 286.5 281.984 285.467 280.65 283.4C279.384 281.333 278.584 277.933 278.25 273.2C278.117 271.467 277.984 268.867 277.85 265.4C275.784 271.133 273.884 275.533 272.15 278.6C270.484 281.6 268.817 283.667 267.15 284.8C265.55 285.933 263.617 286.5 261.35 286.5C258.617 286.5 256.45 285.433 254.85 283.3C253.317 281.167 252.35 277.8 251.95 273.2C251.15 263.867 250.75 255.7 250.75 248.7V245.2C250.817 242.933 251.384 241.4 252.45 240.6C253.517 239.733 255.25 239.3 257.65 239.3C259.384 239.3 260.65 239.7 261.45 240.5C262.317 241.233 262.75 242.5 262.75 244.3C262.75 251.967 263.217 261.933 264.15 274.2C266.35 269.533 268.384 265.067 270.25 260.8C272.117 256.533 274.284 251.067 276.75 244.4C277.484 242.4 278.35 241.067 279.35 240.4C280.417 239.667 281.65 239.3 283.05 239.3C284.917 239.3 286.317 239.7 287.25 240.5C288.184 241.233 288.65 242.5 288.65 244.3V259.8C288.65 266.467 288.684 271.267 288.75 274.2C291.817 268.867 294.317 264.233 296.25 260.3C298.25 256.367 300.484 251.067 302.95 244.4C303.684 242.4 304.65 241.067 305.85 240.4C307.05 239.667 308.55 239.3 310.35 239.3Z" fill="url(#paint0_diamond_417_241)"/>
<defs>
<radialGradient id="paint0_diamond_417_241" cx="0" cy="0" r="1" gradientUnits="userSpaceOnUse" gradientTransform="translate(208.36 179.827) rotate(-85.1901) scale(188.781 287.105)">
<stop stop-color="#24990D"/>
<stop offset="1" stop-color="#A2D30E"/>
</radialGradient>
</defs>
</svg>
