<svg width="390" height="354" viewBox="0 0 390 354" fill="none" xmlns="http://www.w3.org/2000/svg">
<rect width="390" height="354" fill="black"/>
<path d="M132.1 72.1C133.967 72.3667 135.234 72.9333 135.9 73.8C136.634 74.6667 137 75.8 137 77.2C137 81.8 134.534 83.9333 129.6 83.6L126.1 83.3C122.167 82.9667 118.234 82.7 114.3 82.5C110.434 82.3 106.367 82.2 102.1 82.2H97.6004C96.8004 92.0667 95.9671 101.067 95.1004 109.2L112.3 108.9C114.767 108.9 116.4 109.333 117.2 110.2C118.067 111.067 118.5 112.233 118.5 113.7C118.5 115.967 117.834 117.767 116.5 119.1C115.167 120.367 113.267 121 110.8 121H93.7004L93.1004 125.3C91.7004 136.3 88.7004 144.133 84.1004 148.8C79.5671 153.467 73.3004 155.8 65.3004 155.8C60.7671 155.8 56.6004 154.833 52.8004 152.9C49.0004 150.9 46.2004 148.5 44.4004 145.7C43.6671 144.567 43.3004 143.2 43.3004 141.6C43.3004 140 43.6671 138.6 44.4004 137.4C45.2004 136.2 46.1671 135.6 47.3004 135.6C48.1004 135.6 48.8671 135.867 49.6004 136.4C50.4004 136.933 51.4004 137.967 52.6004 139.5C55.8004 143.7 59.7671 145.8 64.5004 145.8C68.3004 145.8 71.4671 144.267 74.0004 141.2C76.6004 138.067 78.2671 133.167 79.0004 126.5L79.6004 121H74.8004C73.2671 121 71.9337 120.567 70.8004 119.7C69.7337 118.833 69.2004 117.6 69.2004 116C69.2004 113.933 69.7337 112.367 70.8004 111.3C71.8671 110.167 73.4337 109.6 75.5004 109.6C77.3671 109.6 79.2004 109.567 81.0004 109.5C81.8004 102.167 82.6671 93.2667 83.6004 82.8C76.4004 83.4667 71.3337 84.6333 68.4004 86.3C65.4671 87.9667 64.0004 90.4333 64.0004 93.7C64.0004 95.9667 64.6671 98.1333 66.0004 100.2C66.4004 100.8 66.6004 101.4 66.6004 102C66.6004 103.2 65.9337 104.267 64.6004 105.2C63.2671 106.067 61.7671 106.5 60.1004 106.5C58.3004 106.5 56.7671 105.967 55.5004 104.9C54.7004 104.233 53.9337 102.867 53.2004 100.8C52.4671 98.7333 52.1004 96.4333 52.1004 93.9C52.1004 85.6333 56.3337 79.6333 64.8004 75.9C73.3337 72.1667 85.7671 70.3 102.1 70.3C113.434 70.3 123.434 70.9 132.1 72.1ZM132.492 155.5C129.958 155.5 128.158 154.167 127.092 151.5C126.092 148.833 125.592 144.567 125.592 138.7C125.592 130.033 126.825 121.8 129.292 114C129.892 112.067 130.858 110.667 132.192 109.8C133.592 108.867 135.525 108.4 137.992 108.4C139.325 108.4 140.258 108.567 140.792 108.9C141.325 109.233 141.592 109.867 141.592 110.8C141.592 111.867 141.092 114.267 140.092 118C139.425 120.667 138.892 123 138.492 125C138.092 127 137.758 129.467 137.492 132.4C139.692 126.667 142.158 122 144.892 118.4C147.625 114.8 150.292 112.233 152.892 110.7C155.558 109.167 157.992 108.4 160.192 108.4C164.525 108.4 166.692 110.567 166.692 114.9C166.692 115.767 166.392 117.867 165.792 121.2C165.258 123.867 164.992 125.533 164.992 126.2C164.992 128.533 165.825 129.7 167.492 129.7C169.358 129.7 171.758 128.233 174.692 125.3C175.558 124.433 176.458 124 177.392 124C178.258 124 178.925 124.4 179.392 125.2C179.925 125.933 180.192 126.933 180.192 128.2C180.192 130.667 179.525 132.6 178.192 134C176.325 135.933 174.125 137.6 171.592 139C169.125 140.333 166.492 141 163.692 141C160.158 141 157.458 140.1 155.592 138.3C153.792 136.5 152.892 134.067 152.892 131C152.892 130 152.992 129 153.192 128C153.325 126.667 153.392 125.767 153.392 125.3C153.392 124.233 153.025 123.7 152.292 123.7C151.292 123.7 149.958 124.833 148.292 127.1C146.692 129.3 145.092 132.233 143.492 135.9C141.892 139.567 140.592 143.433 139.592 147.5C138.858 150.633 137.992 152.767 136.992 153.9C136.058 154.967 134.558 155.5 132.492 155.5ZM189.2 155.5C185.066 155.5 181.766 154 179.3 151C176.833 148 175.6 144.067 175.6 139.2C175.6 133.867 176.833 128.833 179.3 124.1C181.766 119.3 185.033 115.467 189.1 112.6C193.233 109.667 197.6 108.2 202.2 108.2C203.666 108.2 204.633 108.5 205.1 109.1C205.633 109.633 206.066 110.633 206.4 112.1C207.8 111.833 209.266 111.7 210.8 111.7C214.066 111.7 215.7 112.867 215.7 115.2C215.7 116.6 215.2 119.933 214.2 125.2C212.666 132.867 211.9 138.2 211.9 141.2C211.9 142.2 212.133 143 212.6 143.6C213.133 144.2 213.8 144.5 214.6 144.5C215.866 144.5 217.4 143.7 219.2 142.1C221 140.433 223.433 137.767 226.5 134.1C227.3 133.167 228.2 132.7 229.2 132.7C230.066 132.7 230.733 133.1 231.2 133.9C231.733 134.7 232 135.8 232 137.2C232 139.867 231.366 141.933 230.1 143.4C227.366 146.8 224.466 149.667 221.4 152C218.333 154.333 215.366 155.5 212.5 155.5C210.3 155.5 208.266 154.767 206.4 153.3C204.6 151.767 203.233 149.7 202.3 147.1C198.833 152.7 194.466 155.5 189.2 155.5ZM192.8 145.4C194.266 145.4 195.666 144.533 197 142.8C198.333 141.067 199.3 138.767 199.9 135.9L203.6 117.5C200.8 117.567 198.2 118.633 195.8 120.7C193.466 122.7 191.6 125.367 190.2 128.7C188.8 132.033 188.1 135.567 188.1 139.3C188.1 141.367 188.5 142.9 189.3 143.9C190.166 144.9 191.333 145.4 192.8 145.4ZM236.972 155.5C234.439 155.5 232.639 154.167 231.572 151.5C230.572 148.833 230.072 144.567 230.072 138.7C230.072 130.033 231.306 121.8 233.772 114C234.372 112.067 235.339 110.667 236.672 109.8C238.072 108.867 240.006 108.4 242.472 108.4C243.806 108.4 244.739 108.567 245.272 108.9C245.806 109.233 246.072 109.867 246.072 110.8C246.072 111.867 245.572 114.267 244.572 118C243.906 120.667 243.372 123 242.972 125C242.572 126.933 242.239 129.367 241.972 132.3C243.772 127.1 245.906 122.7 248.372 119.1C250.906 115.5 253.472 112.833 256.072 111.1C258.739 109.3 261.239 108.4 263.572 108.4C265.906 108.4 267.539 108.933 268.472 110C269.472 111.067 269.972 112.7 269.972 114.9C269.972 117.033 269.339 120.9 268.072 126.5C267.539 128.9 267.172 130.7 266.972 131.9C270.306 123.7 274.006 117.733 278.072 114C282.139 110.267 285.939 108.4 289.472 108.4C293.806 108.4 295.972 110.567 295.972 114.9C295.972 117.5 295.239 122.2 293.772 129C292.506 134.8 291.872 138.633 291.872 140.5C291.872 143.167 292.839 144.5 294.772 144.5C296.106 144.5 297.672 143.7 299.472 142.1C301.339 140.433 303.806 137.767 306.872 134.1C307.672 133.167 308.572 132.7 309.572 132.7C310.439 132.7 311.106 133.1 311.572 133.9C312.106 134.7 312.372 135.8 312.372 137.2C312.372 139.867 311.739 141.933 310.472 143.4C307.606 146.933 304.506 149.833 301.172 152.1C297.906 154.367 294.172 155.5 289.972 155.5C286.572 155.5 284.006 154.533 282.272 152.6C280.539 150.6 279.672 147.733 279.672 144C279.672 142.133 280.139 138.8 281.072 134C281.939 129.8 282.372 126.9 282.372 125.3C282.372 124.233 282.006 123.7 281.272 123.7C280.406 123.7 279.172 124.833 277.572 127.1C275.972 129.3 274.372 132.233 272.772 135.9C271.172 139.567 269.872 143.433 268.872 147.5C268.139 150.7 267.272 152.833 266.272 153.9C265.339 154.967 263.806 155.5 261.672 155.5C259.472 155.5 257.806 154.467 256.672 152.4C255.606 150.267 255.072 147.7 255.072 144.7C255.072 142.167 255.406 138.5 256.072 133.7C256.606 129.433 256.872 126.633 256.872 125.3C256.872 124.233 256.506 123.7 255.772 123.7C254.772 123.7 253.506 124.9 251.972 127.3C250.439 129.7 248.939 132.767 247.472 136.5C246.072 140.233 244.939 143.9 244.072 147.5C243.339 150.633 242.472 152.767 241.472 153.9C240.539 154.967 239.039 155.5 236.972 155.5ZM346.086 135.7C346.953 135.7 347.62 136.1 348.086 136.9C348.62 137.7 348.886 138.8 348.886 140.2C348.886 142.6 348.32 144.667 347.186 146.4C345.32 149.267 342.853 151.5 339.786 153.1C336.786 154.7 333.186 155.5 328.986 155.5C322.586 155.5 317.62 153.6 314.086 149.8C310.553 145.933 308.786 140.733 308.786 134.2C308.786 129.6 309.753 125.333 311.686 121.4C313.62 117.4 316.286 114.233 319.686 111.9C323.153 109.567 327.053 108.4 331.386 108.4C335.253 108.4 338.353 109.567 340.686 111.9C343.02 114.167 344.186 117.267 344.186 121.2C344.186 125.8 342.52 129.767 339.186 133.1C335.92 136.367 330.32 138.967 322.386 140.9C323.986 143.967 326.686 145.5 330.486 145.5C333.22 145.5 335.453 144.867 337.186 143.6C338.986 142.333 341.053 140.2 343.386 137.2C344.186 136.2 345.086 135.7 346.086 135.7ZM329.686 118.2C327.22 118.2 325.12 119.633 323.386 122.5C321.72 125.367 320.886 128.833 320.886 132.9V133.1C324.82 132.167 327.92 130.767 330.186 128.9C332.453 127.033 333.586 124.867 333.586 122.4C333.586 121.133 333.22 120.133 332.486 119.4C331.82 118.6 330.886 118.2 329.686 118.2ZM166.448 202.1C168.315 202.367 169.581 202.933 170.248 203.8C170.981 204.667 171.348 205.8 171.348 207.2C171.348 211.8 168.881 213.933 163.948 213.6L160.448 213.3C156.515 212.967 152.581 212.7 148.648 212.5C144.781 212.3 140.715 212.2 136.448 212.2H131.948C131.148 222.067 130.315 231.067 129.448 239.2L146.648 238.9C149.115 238.9 150.748 239.333 151.548 240.2C152.415 241.067 152.848 242.233 152.848 243.7C152.848 245.967 152.181 247.767 150.848 249.1C149.515 250.367 147.615 251 145.148 251H128.048L127.448 255.3C126.048 266.3 123.048 274.133 118.448 278.8C113.915 283.467 107.648 285.8 99.648 285.8C95.1147 285.8 90.948 284.833 87.148 282.9C83.348 280.9 80.548 278.5 78.748 275.7C78.0147 274.567 77.648 273.2 77.648 271.6C77.648 270 78.0147 268.6 78.748 267.4C79.548 266.2 80.5147 265.6 81.648 265.6C82.448 265.6 83.2147 265.867 83.948 266.4C84.748 266.933 85.748 267.967 86.948 269.5C90.148 273.7 94.1147 275.8 98.848 275.8C102.648 275.8 105.815 274.267 108.348 271.2C110.948 268.067 112.615 263.167 113.348 256.5L113.948 251H109.148C107.615 251 106.281 250.567 105.148 249.7C104.081 248.833 103.548 247.6 103.548 246C103.548 243.933 104.081 242.367 105.148 241.3C106.215 240.167 107.781 239.6 109.848 239.6C111.715 239.6 113.548 239.567 115.348 239.5C116.148 232.167 117.015 223.267 117.948 212.8C110.748 213.467 105.681 214.633 102.748 216.3C99.8147 217.967 98.348 220.433 98.348 223.7C98.348 225.967 99.0147 228.133 100.348 230.2C100.748 230.8 100.948 231.4 100.948 232C100.948 233.2 100.281 234.267 98.948 235.2C97.6147 236.067 96.1147 236.5 94.448 236.5C92.648 236.5 91.1147 235.967 89.848 234.9C89.048 234.233 88.2814 232.867 87.548 230.8C86.8147 228.733 86.448 226.433 86.448 223.9C86.448 215.633 90.6814 209.633 99.148 205.9C107.681 202.167 120.115 200.3 136.448 200.3C147.781 200.3 157.781 200.9 166.448 202.1ZM197.639 262.7C198.506 262.7 199.173 263.1 199.639 263.9C200.173 264.7 200.439 265.8 200.439 267.2C200.439 269.867 199.806 271.933 198.539 273.4C195.673 276.933 192.539 279.833 189.139 282.1C185.806 284.367 182.006 285.5 177.739 285.5C171.873 285.5 167.506 282.833 164.639 277.5C161.839 272.167 160.439 265.267 160.439 256.8C160.439 248.667 161.473 239.4 163.539 229C165.673 218.6 168.773 209.667 172.839 202.2C176.973 194.733 181.873 191 187.539 191C190.739 191 193.239 192.5 195.039 195.5C196.906 198.433 197.839 202.667 197.839 208.2C197.839 216.133 195.639 225.333 191.239 235.8C186.839 246.267 180.873 256.633 173.339 266.9C173.806 269.633 174.573 271.6 175.639 272.8C176.706 273.933 178.106 274.5 179.839 274.5C182.573 274.5 184.973 273.733 187.039 272.2C189.106 270.6 191.739 267.9 194.939 264.1C195.739 263.167 196.639 262.7 197.639 262.7ZM185.339 200.9C183.806 200.9 182.073 203.667 180.139 209.2C178.206 214.733 176.506 221.6 175.039 229.8C173.573 238 172.773 245.867 172.639 253.4C177.373 245.6 181.139 237.8 183.939 230C186.739 222.133 188.139 214.967 188.139 208.5C188.139 203.433 187.206 200.9 185.339 200.9ZM249.357 254.3C250.223 254.3 250.89 254.733 251.357 255.6C251.823 256.467 252.057 257.567 252.057 258.9C252.057 262.1 251.09 264 249.157 264.6C245.157 266 240.757 266.8 235.957 267C234.69 272.6 232.19 277.1 228.457 280.5C224.723 283.833 220.49 285.5 215.757 285.5C211.757 285.5 208.323 284.533 205.457 282.6C202.657 280.667 200.523 278.1 199.057 274.9C197.59 271.7 196.857 268.233 196.857 264.5C196.857 259.433 197.823 254.933 199.757 251C201.69 247 204.357 243.9 207.757 241.7C211.157 239.433 214.923 238.3 219.057 238.3C224.123 238.3 228.19 240.067 231.257 243.6C234.39 247.067 236.223 251.367 236.757 256.5C239.89 256.3 243.623 255.633 247.957 254.5C248.49 254.367 248.957 254.3 249.357 254.3ZM216.557 274.9C218.69 274.9 220.523 274.033 222.057 272.3C223.657 270.567 224.723 268.067 225.257 264.8C223.19 263.4 221.59 261.567 220.457 259.3C219.39 257.033 218.857 254.633 218.857 252.1C218.857 251.033 218.957 249.967 219.157 248.9H218.657C215.99 248.9 213.757 250.2 211.957 252.8C210.223 255.333 209.357 258.933 209.357 263.6C209.357 267.267 210.057 270.067 211.457 272C212.923 273.933 214.623 274.9 216.557 274.9ZM310.35 238.3C314.017 238.3 315.85 239.467 315.85 241.8C315.85 242.6 315.584 243.7 315.05 245.1C309.65 257.7 304.55 267.867 299.75 275.6C297.35 279.4 295.184 282 293.25 283.4C291.317 284.8 289.117 285.5 286.65 285.5C283.984 285.5 281.984 284.467 280.65 282.4C279.384 280.333 278.584 276.933 278.25 272.2C278.117 270.467 277.984 267.867 277.85 264.4C275.784 270.133 273.884 274.533 272.15 277.6C270.484 280.6 268.817 282.667 267.15 283.8C265.55 284.933 263.617 285.5 261.35 285.5C258.617 285.5 256.45 284.433 254.85 282.3C253.317 280.167 252.35 276.8 251.95 272.2C251.15 262.867 250.75 254.7 250.75 247.7V244.2C250.817 241.933 251.384 240.4 252.45 239.6C253.517 238.733 255.25 238.3 257.65 238.3C259.384 238.3 260.65 238.7 261.45 239.5C262.317 240.233 262.75 241.5 262.75 243.3C262.75 250.967 263.217 260.933 264.15 273.2C266.35 268.533 268.384 264.067 270.25 259.8C272.117 255.533 274.284 250.067 276.75 243.4C277.484 241.4 278.35 240.067 279.35 239.4C280.417 238.667 281.65 238.3 283.05 238.3C284.917 238.3 286.317 238.7 287.25 239.5C288.184 240.233 288.65 241.5 288.65 243.3V258.8C288.65 265.467 288.684 270.267 288.75 273.2C291.817 267.867 294.317 263.233 296.25 259.3C298.25 255.367 300.484 250.067 302.95 243.4C303.684 241.4 304.65 240.067 305.85 239.4C307.05 238.667 308.55 238.3 310.35 238.3Z" fill="url(#paint0_diamond_417_238)"/>
<defs>
<radialGradient id="paint0_diamond_417_238" cx="0" cy="0" r="1" gradientUnits="userSpaceOnUse" gradientTransform="translate(189.813 174.969) rotate(156.562) scale(158.312 136.347)">
<stop stop-color="#A3EA1E"/>
<stop offset="1" stop-color="#3C8515"/>
</radialGradient>
</defs>
</svg>
