<svg width="20" height="17" viewBox="0 0 20 17" fill="none" xmlns="http://www.w3.org/2000/svg">
<g clip-path="url(#clip0_665_58)">
<path d="M8.69603 16.9907C9.30128 16.9907 9.73742 16.5275 9.73742 15.9068V12.3678H9.99553C13.449 12.3678 15.6208 13.2757 17.1784 16.3052C17.49 16.8981 17.8994 16.9907 18.2732 16.9907C18.745 16.9907 19.1899 16.546 19.1899 15.7493C19.1899 8.90299 16.4041 4.63216 9.99553 4.63216H9.73742V1.13025C9.73742 0.509537 9.30127 0 8.67822 0C8.24208 0 7.94836 0.19455 7.47662 0.657766L0.453937 7.49483C0.106809 7.8376 0 8.18038 0 8.49537C0 8.80109 0.11571 9.15314 0.453937 9.48665L7.47662 16.3886C7.90386 16.8054 8.25989 16.9907 8.69603 16.9907ZM8.18869 14.9989C8.13528 14.9989 8.08187 14.9711 8.03737 14.9155L1.69114 8.67139C1.61993 8.59728 1.59323 8.55096 1.59323 8.49537C1.59323 8.43978 1.61993 8.38421 1.69114 8.31935L8.02847 1.99182C8.07297 1.95476 8.12638 1.91771 8.17977 1.91771C8.25989 1.91771 8.30438 1.9733 8.30438 2.04741V5.72534C8.30438 5.93841 8.40231 6.03106 8.60702 6.03106H9.79972C15.9056 6.03106 17.7481 10.4409 17.9261 14.8136C17.9261 14.8877 17.8994 14.9155 17.8549 14.9155C17.8193 14.9155 17.8015 14.8877 17.7748 14.8229C16.7245 12.4975 14.0276 10.9689 9.79972 10.9689H8.60702C8.40231 10.9689 8.30438 11.0616 8.30438 11.2747V14.8599C8.30438 14.9433 8.25989 14.9989 8.18869 14.9989Z" fill="#8B8B8B"/>
</g>
<defs>
<clipPath id="clip0_665_58">
<rect width="20" height="17" fill="white"/>
</clipPath>
</defs>
</svg>
