<svg width="30" height="32" viewBox="0 0 30 32" fill="none" xmlns="http://www.w3.org/2000/svg">
<g clip-path="url(#clip0_665_169)">
<path d="M14.4923 27.2395C14.6701 27.3349 14.8379 27.395 14.9959 27.395C15.162 27.395 15.3297 27.3349 15.5076 27.2395L26.3612 20.9131C26.5921 21.1568 26.6956 21.4127 26.6956 21.7304C26.6956 22.2775 26.3751 22.6455 25.6057 23.0952L16.2337 28.5577C15.7564 28.8339 15.4018 28.973 14.9959 28.973C14.598 28.973 14.2354 28.8339 13.7662 28.5577L4.3942 23.0952C3.62477 22.6455 3.30066 22.2775 3.30066 21.7304C3.30066 21.4125 3.40546 21.1564 3.63776 20.9126L14.4923 27.2395Z" fill="white"/>
<path d="M14.4923 21.6576C14.6701 21.7531 14.8379 21.8167 14.9959 21.8167C15.162 21.8167 15.3297 21.7531 15.5076 21.6576L26.358 15.3331C26.5912 15.5765 26.6956 15.8295 26.6956 16.1484C26.6956 16.7074 26.3751 17.0636 25.6057 17.5132L16.2337 22.9875C15.7564 23.2601 15.4018 23.3992 14.9959 23.3992C14.598 23.3992 14.2354 23.2601 13.7662 22.9875L4.3942 17.5132C3.62477 17.0636 3.30066 16.7074 3.30066 16.1484C3.30066 15.8292 3.40637 15.5761 3.64089 15.3325L14.4923 21.6576Z" fill="white"/>
<path d="M4.3942 11.7176L13.7662 17.1837C14.2354 17.4563 14.598 17.5954 14.9959 17.5954C15.4018 17.5954 15.7564 17.4563 16.2337 17.1837L25.6057 11.7176C26.3751 11.268 26.6956 10.9036 26.6956 10.3446C26.6956 9.79385 26.3751 9.42949 25.6057 8.97983L16.2337 3.51373C15.7564 3.24117 15.4018 3.10205 14.9959 3.10205C14.598 3.10205 14.2354 3.24117 13.7662 3.51373L4.3942 8.97983C3.62477 9.42949 3.30066 9.79385 3.30066 10.3446C3.30066 10.9036 3.62477 11.268 4.3942 11.7176ZM5.2991 10.529C5.1088 10.4258 5.1088 10.2717 5.2991 10.1648L14.5373 4.82732C14.7151 4.73186 14.846 4.67638 14.9959 4.67638C15.1539 4.67638 15.2847 4.73186 15.4626 4.82732L24.7007 10.1648C24.891 10.2717 24.891 10.4258 24.7007 10.529L15.4626 15.8701C15.2847 15.9656 15.162 16.0211 14.9959 16.0211C14.8379 16.0211 14.7151 15.9656 14.5373 15.8701L5.2991 10.529Z" fill="white"/>
</g>
<defs>
<clipPath id="clip0_665_169">
<rect width="30" height="32" fill="white"/>
</clipPath>
</defs>
</svg>
