<svg width="20" height="16" viewBox="0 0 20 16" fill="none" xmlns="http://www.w3.org/2000/svg">
<g clip-path="url(#clip0_665_49)">
<path d="M11.3039 15.9913C11.74 15.9913 12.0961 15.8169 12.5233 15.4245L19.5461 8.92861C19.8842 8.61472 20 8.28338 20 7.99564C20 7.69918 19.8931 7.37657 19.5461 7.05396L12.5233 0.619074C12.0516 0.183106 11.7579 0 11.3217 0C10.6987 0 10.2536 0.479565 10.2536 1.06376V4.35968H9.9955C3.59588 4.35968 0.809937 8.37929 0.809937 14.8229C0.809937 15.5727 1.24607 15.9913 1.72671 15.9913C2.10054 15.9913 2.50997 15.9041 2.8215 15.3461C4.37023 12.4948 6.55091 11.6403 9.9955 11.6403H10.2536V14.9711C10.2536 15.5553 10.6987 15.9913 11.3039 15.9913ZM11.8112 14.1166C11.74 14.1166 11.6866 14.0643 11.6866 13.9858V10.6114C11.6866 10.4109 11.5976 10.3237 11.3929 10.3237H10.2002C5.97237 10.3237 3.27545 11.7624 2.22515 13.951C2.19844 14.012 2.18065 14.0382 2.13616 14.0382C2.10054 14.0382 2.07385 14.012 2.07385 13.9422C2.25185 9.8267 4.08541 5.67629 10.2002 5.67629H11.3929C11.5976 5.67629 11.6866 5.5891 11.6866 5.38856V1.92697C11.6866 1.85722 11.74 1.8049 11.8202 1.8049C11.8736 1.8049 11.927 1.83978 11.9715 1.87465L18.3087 7.82998C18.3711 7.89102 18.3978 7.94332 18.3978 7.99564C18.3978 8.04796 18.38 8.09155 18.3087 8.1613L11.9626 14.0382C11.9181 14.0905 11.8647 14.1166 11.8112 14.1166Z" fill="#8B8B8B" fill-opacity="0.3"/>
</g>
<defs>
<clipPath id="clip0_665_49">
<rect width="20" height="16" fill="white"/>
</clipPath>
</defs>
</svg>
