<svg width="33" height="33" viewBox="0 0 33 33" fill="none" xmlns="http://www.w3.org/2000/svg">
<path d="M25.4447 16.5625V7.22917C25.4447 5.75584 24.2513 4.5625 22.778 4.5625H6.77799C5.30466 4.5625 4.11133 5.75584 4.11133 7.22917V23.2292C4.11133 24.7025 5.30466 25.8959 6.77799 25.8959H16.1113" stroke="#8B8B8B" stroke-width="1.5" stroke-linecap="round" stroke-linejoin="round"/>
<path fill-rule="evenodd" clip-rule="evenodd" d="M27.6193 26.1856L25.734 28.0709C25.2127 28.5922 24.3687 28.5922 23.8487 28.0709L13.8073 18.0296C13.5567 17.7802 13.4167 17.4402 13.4167 17.0869V13.8682H16.6353C16.9887 13.8682 17.3287 14.0082 17.578 14.2589L27.6193 24.3002C28.1407 24.8202 28.1407 25.6642 27.6193 26.1856Z" stroke="#8B8B8B" stroke-width="1.5" stroke-linecap="round" stroke-linejoin="round"/>
<path d="M25.2301 21.916L21.4568 25.676" stroke="#8B8B8B" stroke-width="1.5" stroke-linecap="round" stroke-linejoin="round"/>
</svg>
