<svg width="26" height="32" viewBox="0 0 26 32" fill="none" xmlns="http://www.w3.org/2000/svg">
<g clip-path="url(#clip0_665_363)">
<path d="M8.94779 25.5913C9.3591 25.5913 9.62317 25.3258 9.61379 24.9536L9.15854 10.0061C9.14915 9.63393 8.87243 9.38613 8.49254 9.38613C8.08543 9.38613 7.81295 9.64326 7.8223 10.0238L8.26817 24.962C8.27755 25.3393 8.54163 25.5913 8.94779 25.5913ZM13.0063 25.5913C13.4134 25.5913 13.7047 25.33 13.7047 24.9536V10.0238C13.7047 9.64743 13.4134 9.38613 13.0063 9.38613C12.5992 9.38613 12.3216 9.64743 12.3216 10.0238V24.9536C12.3216 25.33 12.5992 25.5913 13.0063 25.5913ZM17.07 25.5996C17.4626 25.5996 17.7309 25.3476 17.7403 24.9661L18.1861 10.0322C18.1955 9.64743 17.923 9.39451 17.5159 9.39451C17.136 9.39451 16.8551 9.63811 16.8499 10.0196L16.404 24.962C16.3947 25.33 16.6587 25.5996 17.07 25.5996ZM7.1888 5.86576H8.85341V3.00101C8.85341 2.11406 9.46054 1.55999 10.4197 1.55999H15.5658C16.5292 1.55999 17.1363 2.11406 17.1363 3.00101V5.86576H18.8009V2.91201C18.8009 1.09207 17.6154 0 15.6521 0H10.3291C8.37424 0 7.1888 1.09207 7.1888 2.91201V5.86576ZM0.796402 6.6949H25.2214C25.6567 6.6949 26 6.33111 26 5.90302C26 5.46657 25.6525 5.11628 25.2214 5.11628H0.796402C0.374746 5.11628 0 5.47078 0 5.90302C0 6.3446 0.374746 6.6949 0.796402 6.6949ZM6.84193 29.7764H19.1717C20.9222 29.7764 22.1854 28.5706 22.2721 26.8447L23.2914 6.46344H21.5912L20.6043 26.6779C20.5729 27.5468 19.8954 28.1934 19.0258 28.1934H6.96908C6.11394 28.1934 5.44073 27.5375 5.39573 26.6779L4.37551 6.46765H2.72125L3.74989 26.854C3.83663 28.58 5.07688 29.7764 6.84193 29.7764Z" fill="white"/>
</g>
<defs>
<clipPath id="clip0_665_363">
<rect width="26" height="32" fill="white"/>
</clipPath>
</defs>
</svg>
