<svg width="32" height="32" viewBox="0 0 32 32" fill="none" xmlns="http://www.w3.org/2000/svg">
<g clip-path="url(#clip0_669_40)">
<path d="M21.2194 6.71364H8.59386C7.29226 6.71364 6.56335 7.43779 6.56335 8.83239V24.0524C6.56335 25.447 7.29226 26.1577 8.59386 26.1577H23.4191C24.7207 26.1577 25.4366 25.447 25.4366 24.0524V11.163L27.5323 9.00008V24.1597C27.5323 26.9355 26.1655 28.3167 23.4452 28.3167H8.55481C5.84745 28.3167 4.46777 26.9355 4.46777 24.1597V8.71169C4.46777 5.94929 5.84745 4.55469 8.55481 4.55469H23.315L21.2194 6.71364Z" fill="#FB8B25"/>
<path d="M13.2926 19.6276L15.8308 18.4877L27.9879 5.97648L26.2046 4.16617L14.0606 16.6774L12.8892 19.1985C12.785 19.4264 13.0453 19.7349 13.2926 19.6276ZM28.951 4.99756L29.8882 4.00526C30.3307 3.52252 30.3307 2.87883 29.8882 2.43632L29.5889 2.11448C29.1853 1.69878 28.5474 1.75242 28.118 2.18153L27.1679 3.14704L28.951 4.99756Z" fill="#FB8B25"/>
</g>
<defs>
<clipPath id="clip0_669_40">
<rect width="32" height="32" fill="white"/>
</clipPath>
</defs>
</svg>
