<svg width="33" height="32" viewBox="0 0 33 32" fill="none" xmlns="http://www.w3.org/2000/svg">
<g clip-path="url(#clip0_665_302)">
<path d="M24.6571 4.49329L22.9601 6.18931H8.63797C7.08233 6.18931 6.23666 7.01592 6.23666 8.61397V24.3052C6.23666 25.899 7.08233 26.7203 8.63797 26.7203H24.3673C25.9272 26.7203 26.7634 25.899 26.7634 24.3052V10.0759L28.4631 8.37416C28.4673 8.42006 28.4679 8.46964 28.4679 8.5197V24.39C28.4679 27.0673 27.0956 28.4249 24.3992 28.4249H8.60086C5.91397 28.4249 4.52795 27.0673 4.52795 24.39V8.5197C4.52795 5.85186 5.91397 4.48486 8.60086 4.48486H24.3992C24.4879 4.48486 24.5751 4.48636 24.6571 4.49329Z" fill="#A8DB10"/>
<path d="M13.9972 19.2886L16.3634 18.2224L29.2334 5.36199L27.6376 3.7768L14.7773 16.6372L13.6506 18.9325C13.553 19.1287 13.782 19.3776 13.9972 19.2886ZM30.1648 4.44427L31.0601 3.52989C31.4996 3.07151 31.5081 2.52024 31.0773 2.09899L30.854 1.86615C30.4648 1.47679 29.8867 1.52772 29.4655 1.93944L28.5607 2.8348L30.1648 4.44427Z" fill="#A8DB10"/>
</g>
<defs>
<clipPath id="clip0_665_302">
<rect width="33" height="32" fill="white"/>
</clipPath>
</defs>
</svg>
