<svg width="37" height="32" viewBox="0 0 37 32" fill="none" xmlns="http://www.w3.org/2000/svg">
<g clip-path="url(#clip0_665_288)">
<path d="M19.9032 31.6771C26.268 31.6771 30.5519 29.3967 30.5519 26.05C30.5519 22.9246 27.9028 22.3744 27.9028 20.3164C27.9028 17.3479 37 17.2217 37 10.5512C37 4.20164 30.6035 0 21.0594 0C8.46377 0 0 6.45688 0 16.1211C0 25.419 8.02628 31.6771 19.9032 31.6771ZM19.9032 29.572C9.15111 29.572 2.03728 24.1787 2.03728 16.1211C2.03728 7.69213 9.58857 2.1001 21.0594 2.1001C29.4366 2.1001 34.9674 5.50873 34.9674 10.5512C34.9674 16.3858 25.8272 15.562 25.8272 20.3576C25.8272 23.0683 28.5146 23.82 28.5146 25.8402C28.5146 28.1157 25.1668 29.572 19.9032 29.572ZM18.622 25.6017C21.089 25.6017 23.1098 23.5136 23.1098 20.9483C23.1098 18.4104 21.089 16.3222 18.622 16.3222C16.1502 16.3222 14.1294 18.4104 14.1294 20.9483C14.1294 23.5136 16.1502 25.6017 18.622 25.6017ZM18.622 24.0893C16.9457 24.0893 15.5931 22.6916 15.5931 20.9483C15.5931 19.1098 16.984 17.8519 18.6004 17.8408C20.2385 17.8297 21.651 19.0814 21.651 20.9483C21.651 22.6916 20.3092 24.0893 18.622 24.0893Z" fill="#A8DB10"/>
<path d="M7.57553 18.1478C8.90159 18.1478 9.98514 17.0009 9.98514 15.6207C9.98514 14.2355 8.91612 13.1309 7.57553 13.1309C6.25058 13.1309 5.15625 14.2405 5.15625 15.6207C5.15625 17.0009 6.25541 18.1478 7.57553 18.1478Z" fill="#A8DB10"/>
<path d="M13.2785 13.1014C15.0618 13.1014 16.5015 11.6299 16.5015 9.75992C16.5015 7.9433 15.0462 6.47803 13.2785 6.47803C11.4746 6.47803 10.0302 7.93328 10.0302 9.75992C10.0302 11.6299 11.4746 13.1014 13.2785 13.1014Z" fill="#A8DB10"/>
<path d="M21.2 10.4162C22.6009 10.4162 23.6941 9.27043 23.6941 7.82291C23.6941 6.39152 22.6009 5.24072 21.2 5.24072C19.8207 5.24072 18.6805 6.40154 18.6805 7.82291C18.6805 9.26041 19.8207 10.4162 21.2 10.4162Z" fill="#A8DB10"/>
<path d="M28.3453 11.4293C29.43 11.4293 30.2996 10.5196 30.2996 9.37267C30.2996 8.2469 29.4251 7.32715 28.3453 7.32715C27.2354 7.32715 26.3296 8.2469 26.3296 9.37267C26.3296 10.5146 27.2305 11.4293 28.3453 11.4293Z" fill="#A8DB10"/>
</g>
<defs>
<clipPath id="clip0_665_288">
<rect width="37" height="32" fill="white"/>
</clipPath>
</defs>
</svg>
