<svg width="33" height="32" viewBox="0 0 33 32" fill="none" xmlns="http://www.w3.org/2000/svg">
<path d="M16.927 8.49995C16.7243 8.49995 16.5603 8.66395 16.563 8.86662C16.563 9.06928 16.727 9.23328 16.9296 9.23328C17.1323 9.23328 17.2963 9.06928 17.2963 8.86662C17.2936 8.66395 17.131 8.49995 16.927 8.49995" stroke="#A8DB10" stroke-width="1.5" stroke-linecap="round" stroke-linejoin="round"/>
<path d="M10.1603 15.9986C10.1603 15.7959 9.99631 15.6319 9.79497 15.6346C9.59231 15.6346 9.42831 15.7986 9.42831 16.0013C9.42831 16.2039 9.59231 16.3679 9.79497 16.3679C9.99764 16.3679 10.1603 16.2026 10.1603 15.9986" stroke="#A8DB10" stroke-width="1.5" stroke-linecap="round" stroke-linejoin="round"/>
<path d="M22.231 10.6959C22.0883 10.5533 21.8563 10.5533 21.715 10.6973C21.5723 10.8399 21.5723 11.0719 21.715 11.2146C21.8576 11.3573 22.0896 11.3573 22.2323 11.2146C22.375 11.0706 22.375 10.8399 22.231 10.6959" stroke="#A8DB10" stroke-width="1.5" stroke-linecap="round" stroke-linejoin="round"/>
<path d="M12.1416 20.7853C11.999 20.6426 11.767 20.6426 11.6256 20.7866C11.483 20.9293 11.483 21.1613 11.6256 21.304C11.7683 21.4466 12.0003 21.4466 12.143 21.304C12.2856 21.1613 12.2856 20.9293 12.1416 20.7853" stroke="#A8DB10" stroke-width="1.5" stroke-linecap="round" stroke-linejoin="round"/>
<path d="M12.143 11.2134C12.2856 11.0707 12.2856 10.8387 12.1416 10.6974C11.999 10.5547 11.767 10.5547 11.6243 10.6974C11.4816 10.8401 11.4816 11.0721 11.6243 11.2147C11.767 11.3574 11.999 11.3574 12.143 11.2134" stroke="#A8DB10" stroke-width="1.5" stroke-linecap="round" stroke-linejoin="round"/>
<path fill-rule="evenodd" clip-rule="evenodd" d="M16.9283 28C10.1883 28 4.74564 22.4427 4.93364 15.66C5.10697 9.39867 10.327 4.17867 16.5883 4.00534C23.371 3.81734 28.9283 9.26001 28.9283 16V17.3333C28.9283 18.8067 27.735 20 26.2616 20H23.511C21.739 20 20.4603 21.696 20.947 23.3987L21.2896 24.6C21.7776 26.304 20.4976 28 18.727 28H16.9283Z" stroke="#A8DB10" stroke-width="1.5" stroke-linecap="round" stroke-linejoin="round"/>
</svg>
