<svg width="31" height="26" viewBox="0 0 31 26" fill="none" xmlns="http://www.w3.org/2000/svg">
<g clip-path="url(#clip0_803_165)">
<path d="M21.1614 25.9998C23.0766 25.9998 24.644 24.4324 24.644 22.5171C24.644 20.6067 23.0766 19.0345 21.1614 19.0345C19.2462 19.0345 17.6681 20.6067 17.6681 22.5171C17.6681 24.4324 19.2462 25.9998 21.1614 25.9998ZM21.1614 24.4209C20.0861 24.4209 19.2576 23.5721 19.2576 22.5123C19.2576 21.4312 20.0861 20.6086 21.1614 20.6086C22.2318 20.6086 23.0603 21.4312 23.0603 22.5123C23.0603 23.5721 22.2318 24.4209 21.1614 24.4209ZM18.6694 21.5505H0.951179C0.417341 21.5505 0 21.9785 0 22.5123C0 23.0462 0.417341 23.4635 0.951179 23.4635H18.6694V21.5505ZM29.7632 21.5505H23.7849V23.4635H29.7632C30.2591 23.4635 30.6871 23.0462 30.6871 22.5123C30.6871 21.9785 30.2591 21.5505 29.7632 21.5505ZM9.91703 16.5404C11.8274 16.5404 13.3997 14.9574 13.3997 13.047C13.3997 11.1318 11.8274 9.56439 9.91703 9.56439C8.00182 9.56439 6.4344 11.1318 6.4344 13.047C6.4344 14.9574 8.00182 16.5404 9.91703 16.5404ZM9.91703 14.946C8.85248 14.946 8.01328 14.102 8.01328 13.0374C8.01328 11.9669 8.85248 11.1385 9.91703 11.1385C10.9875 11.1385 11.816 11.9669 11.816 13.0374C11.816 14.102 10.9875 14.946 9.91703 14.946ZM0.913224 12.0755C0.417341 12.0755 0 12.5036 0 13.0374C0 13.5713 0.417341 13.9934 0.913224 13.9934H7.32453V12.0755H0.913224ZM29.7252 12.0755H12.3946V13.9934H29.7252C30.2591 13.9934 30.6871 13.5713 30.6871 13.0374C30.6871 12.5036 30.2591 12.0755 29.7252 12.0755ZM21.1614 7.03556C23.0766 7.03556 24.644 5.46331 24.644 3.5529C24.644 1.63769 23.0766 0.0595703 21.1614 0.0595703C19.2462 0.0595703 17.6681 1.63769 17.6681 3.5529C17.6681 5.46331 19.2462 7.03556 21.1614 7.03556ZM21.1614 5.45186C20.0861 5.45186 19.2576 4.60787 19.2576 3.53262C19.2576 2.46215 20.0861 1.63366 21.1614 1.63366C22.2318 1.63366 23.0603 2.46215 23.0603 3.53262C23.0603 4.60787 22.2318 5.45186 21.1614 5.45186ZM18.67 2.61133H0.951179C0.417341 2.61133 0 3.02867 0 3.56251C0 4.09634 0.417341 4.52919 0.951179 4.52919H18.67V2.61133ZM29.7632 2.61133H23.6832V4.52919H29.7632C30.2591 4.52919 30.6871 4.09634 30.6871 3.56251C30.6871 3.02867 30.2591 2.61133 29.7632 2.61133Z" fill="#8B8B8B"/>
</g>
<defs>
<clipPath id="clip0_803_165">
<rect width="30.6871" height="26" fill="white"/>
</clipPath>
</defs>
</svg>
