<svg width="33" height="31" viewBox="0 0 33 31" fill="none" xmlns="http://www.w3.org/2000/svg">
<g clip-path="url(#clip0_665_272)">
<path d="M0.53549 27.7227C3.35543 31.3955 9.32432 32.0631 12.6856 29.3102C15.4996 27.0273 16.109 23.4851 13.677 20.5408C11.5559 17.9043 8.41265 17.3074 6.1001 19.2103C3.97928 20.9465 4.71009 23.2504 3.44471 24.298C2.47697 25.0782 1.31454 24.6172 0.51229 25.295C-0.0737657 25.8039 -0.240178 26.7289 0.53549 27.7227ZM2.82225 27.3844C2.50341 27.0244 2.53306 26.6835 2.72852 26.5013C3.03414 26.2046 3.99467 26.32 4.73162 25.5885C6.18399 24.1529 5.67693 22.1033 7.25977 20.7637C8.70783 19.5004 10.8615 19.8888 12.3031 21.5957C14.0472 23.6444 13.5629 26.1642 11.5694 27.8528C9.22059 29.9073 5.05446 29.8679 2.82225 27.3844ZM14.7917 23.8532C16.4512 23.7253 17.7256 22.9674 19.2691 21.4152C24.0348 16.633 31.8118 5.36621 32.4821 4.39591C34.2085 1.91196 31.2706 -1.03575 28.7949 0.687751C27.8454 1.35595 16.6365 9.1569 11.8718 13.9806C10.3495 15.5174 9.59014 16.7933 9.43802 18.4361L11.317 18.9089C11.3334 17.7425 11.947 16.5831 13.2033 15.3303C18.0076 10.5414 28.9267 2.91194 29.7113 2.33121C30.5243 1.7341 31.4226 2.64012 30.8373 3.48494C30.333 4.22545 22.5736 15.3937 17.9176 20.0761C16.5766 21.4199 15.5942 21.8868 14.4816 21.9625L14.7917 23.8532ZM17.8639 20.4152L19.4211 20.0394C19.1679 17.1117 16.1944 14.099 13.3152 13.823L12.8449 15.3938C14.9928 15.4528 17.7686 18.2445 17.8639 20.4152Z" fill="#A8DB10"/>
</g>
<defs>
<clipPath id="clip0_665_272">
<rect width="33" height="31" fill="white"/>
</clipPath>
</defs>
</svg>
