<svg width="20" height="16" viewBox="0 0 20 16" fill="none" xmlns="http://www.w3.org/2000/svg">
<g clip-path="url(#clip0_664_25)">
<path d="M11.3039 15.9913C11.74 15.9913 12.0961 15.8169 12.5233 15.4245L19.5461 8.92861C19.8842 8.61472 20 8.28338 20 7.99564C20 7.69918 19.8931 7.37657 19.5461 7.05396L12.5233 0.619074C12.0516 0.183106 11.7579 0 11.3217 0C10.6987 0 10.2536 0.479565 10.2536 1.06376V4.35968H9.9955C3.59588 4.35968 0.809937 8.37929 0.809937 14.8229C0.809937 15.5727 1.24607 15.9913 1.72671 15.9913C2.10054 15.9913 2.50997 15.9041 2.8215 15.3461C4.37023 12.4948 6.55091 11.6403 9.9955 11.6403H10.2536V14.9711C10.2536 15.5553 10.6987 15.9913 11.3039 15.9913Z" fill="#8B8B8B"/>
</g>
<defs>
<clipPath id="clip0_664_25">
<rect width="20" height="16" fill="white"/>
</clipPath>
</defs>
</svg>
