<svg width="29" height="24" viewBox="0 0 29 24" fill="none" xmlns="http://www.w3.org/2000/svg">
<g clip-path="url(#clip0_788_92)">
<path d="M0 22.0427C0 23.3699 0.783641 23.9789 1.68934 23.9789C2.07481 23.9789 2.48745 23.8591 2.86906 23.6467L19.7494 13.6953C20.7273 13.1323 21.1339 12.6814 21.1339 11.9919C21.1339 11.3026 20.7273 10.8516 19.7494 10.2886L2.86906 0.337225C2.48745 0.113695 2.07481 0 1.68934 0C0.783641 0 0 0.602888 0 1.92509V22.0427ZM22.9529 23.9173H26.5037C27.7892 23.9173 28.4143 23.2873 28.4143 22.0067V1.9661C28.4143 0.641161 27.7892 0.0554807 26.5037 0.0554807H22.9529C21.6674 0.0554807 21.0534 0.68056 21.0534 1.9661V22.0067C21.0534 23.2873 21.6674 23.9173 22.9529 23.9173Z" fill="white"/>
</g>
<defs>
<clipPath id="clip0_788_92">
<rect width="28.4143" height="24" fill="white"/>
</clipPath>
</defs>
</svg>
