<svg width="203" height="35" viewBox="0 0 203 35" fill="none" xmlns="http://www.w3.org/2000/svg">
<rect width="203" height="35" fill="black"/>
<path d="M19.2348 13.5H22.8348C23.6948 13.5 24.3298 13.725 24.7398 14.175C25.1598 14.625 25.3698 15.18 25.3698 15.84C25.3698 16.49 25.2048 17.03 24.8748 17.46C24.5548 17.89 24.1148 18.17 23.5548 18.3V18.36C25.1348 18.51 25.9248 19.4 25.9248 21.03C25.9248 21.84 25.6048 22.54 24.9648 23.13C24.3348 23.71 23.5198 24 22.5198 24H19.2348V13.5ZM20.6748 19.08V22.83H22.2648C23.0948 22.83 23.6548 22.665 23.9448 22.335C24.2448 22.005 24.3948 21.55 24.3948 20.97C24.3948 20.38 24.1998 19.92 23.8098 19.59C23.4298 19.25 22.8298 19.08 22.0098 19.08H20.6748ZM20.6748 14.595V17.88H22.0248C22.6148 17.88 23.0648 17.735 23.3748 17.445C23.6848 17.155 23.8398 16.74 23.8398 16.2C23.8398 15.66 23.7098 15.26 23.4498 15C23.1998 14.73 22.7548 14.595 22.1148 14.595H20.6748ZM31.3319 16.065L32.6369 16.215L30.7919 22.44C30.3819 23.84 30.0019 24.855 29.6519 25.485C29.4319 25.875 29.0769 26.22 28.5869 26.52C28.0969 26.83 27.6719 26.99 27.3119 27L26.7569 25.905C27.2369 25.865 27.6919 25.685 28.1219 25.365C28.5619 25.045 28.8269 24.63 28.9169 24.12C28.1969 21.87 27.3619 19.23 26.4119 16.2L27.8219 16.05L29.5319 22.485H29.6219L31.3319 16.065ZM42.4734 24V19.185H38.6484V24H37.2084V13.5H38.6484V17.925H42.4734V13.5H43.9134V24H42.4734ZM49.9277 18.51C49.9277 17.6 49.5127 17.145 48.6827 17.145C48.1527 17.145 47.4377 17.285 46.5377 17.565L46.0577 16.62C46.9177 16.17 47.8477 15.945 48.8477 15.945C50.0577 15.945 50.7977 16.305 51.0677 17.025C51.2077 17.395 51.2777 17.885 51.2777 18.495V21.69C51.2777 22.41 51.4827 22.98 51.8927 23.4L51.0977 24.18C50.9177 24.07 50.7327 23.91 50.5427 23.7C50.3627 23.48 50.2377 23.265 50.1677 23.055H50.1227C49.5727 23.805 48.8127 24.18 47.8427 24.18C46.4127 24.18 45.6977 23.435 45.6977 21.945C45.6977 20.625 46.6277 19.83 48.4877 19.56L49.9277 19.35V18.51ZM47.1377 22.11C47.1377 22.69 47.4927 22.98 48.2027 22.98C48.9227 22.98 49.4977 22.73 49.9277 22.23V20.4C48.6677 20.57 47.8927 20.77 47.6027 21C47.2927 21.25 47.1377 21.62 47.1377 22.11ZM56.8794 15.945C57.1394 15.945 57.3344 15.97 57.4644 16.02C57.6044 16.06 57.7194 16.095 57.8094 16.125C57.8994 16.145 57.9544 16.16 57.9744 16.17L57.7344 17.52C57.4344 17.42 57.0744 17.37 56.6544 17.37C56.2444 17.37 55.8694 17.55 55.5294 17.91C55.1994 18.26 55.0344 18.685 55.0344 19.185V24H53.6844V18.285L53.5644 16.2L54.6594 16.05L54.8244 17.565H54.8844C55.0544 17.075 55.3094 16.685 55.6494 16.395C55.9994 16.095 56.4094 15.945 56.8794 15.945ZM63.4079 16.425C63.4179 16.425 63.4329 16.42 63.4529 16.41L63.4079 16.02V12.825L64.7579 12.675V21.84L64.8779 23.925L63.7829 24.075L63.6179 23.16H63.5579C62.9579 23.84 62.2379 24.18 61.3979 24.18C60.5579 24.18 59.8879 23.885 59.3879 23.295C58.8879 22.695 58.6379 21.635 58.6379 20.115C58.6379 19.495 58.7079 18.935 58.8479 18.435C58.9879 17.935 59.1679 17.535 59.3879 17.235C59.6079 16.935 59.8629 16.685 60.1529 16.485C60.6629 16.125 61.2329 15.945 61.8629 15.945C62.4929 15.945 63.0079 16.105 63.4079 16.425ZM61.9979 17.145C61.7279 17.145 61.4979 17.18 61.3079 17.25C61.1179 17.31 60.9229 17.43 60.7229 17.61C60.2929 18 60.0779 18.795 60.0779 19.995C60.0779 21.185 60.2129 21.98 60.4829 22.38C60.7629 22.78 61.2079 22.98 61.8179 22.98C62.1579 22.98 62.4729 22.905 62.7629 22.755C63.0529 22.595 63.2679 22.425 63.4079 22.245V17.565C63.0179 17.285 62.5479 17.145 61.9979 17.145ZM67.3109 13.5H70.9109C71.7709 13.5 72.4059 13.725 72.8159 14.175C73.2359 14.625 73.4459 15.18 73.4459 15.84C73.4459 16.49 73.2809 17.03 72.9509 17.46C72.6309 17.89 72.1909 18.17 71.6309 18.3V18.36C73.2109 18.51 74.0009 19.4 74.0009 21.03C74.0009 21.84 73.6809 22.54 73.0409 23.13C72.4109 23.71 71.5959 24 70.5959 24H67.3109V13.5ZM68.7509 19.08V22.83H70.3409C71.1709 22.83 71.7309 22.665 72.0209 22.335C72.3209 22.005 72.4709 21.55 72.4709 20.97C72.4709 20.38 72.2759 19.92 71.8859 19.59C71.5059 19.25 70.9059 19.08 70.0859 19.08H68.7509ZM68.7509 14.595V17.88H70.1009C70.6909 17.88 71.1409 17.735 71.4509 17.445C71.7609 17.155 71.9159 16.74 71.9159 16.2C71.9159 15.66 71.7859 15.26 71.5259 15C71.2759 14.73 70.8309 14.595 70.1909 14.595H68.7509ZM78.8081 15.945C79.0681 15.945 79.2631 15.97 79.3931 16.02C79.5331 16.06 79.6481 16.095 79.7381 16.125C79.8281 16.145 79.8831 16.16 79.9031 16.17L79.6631 17.52C79.3631 17.42 79.0031 17.37 78.5831 17.37C78.1731 17.37 77.7981 17.55 77.4581 17.91C77.1281 18.26 76.9631 18.685 76.9631 19.185V24H75.6131V18.285L75.4931 16.2L76.5881 16.05L76.7531 17.565H76.8131C76.9831 17.075 77.2381 16.685 77.5781 16.395C77.9281 16.095 78.3381 15.945 78.8081 15.945ZM83.9266 15.945C84.7866 15.945 85.4216 16.205 85.8316 16.725C86.1716 17.145 86.3816 17.85 86.4616 18.84C86.4916 19.23 86.5066 19.715 86.5066 20.295L85.8916 20.385H82.0066C82.0066 21.645 82.3416 22.44 83.0116 22.77C83.2916 22.91 83.6766 22.98 84.1666 22.98C84.6566 22.98 85.2216 22.82 85.8616 22.5L86.2816 23.43C85.4516 23.93 84.6166 24.18 83.7766 24.18C81.6366 24.18 80.5666 22.83 80.5666 20.13C80.5666 18.85 80.8466 17.835 81.4066 17.085C81.9766 16.325 82.8166 15.945 83.9266 15.945ZM85.0666 19.32C85.0666 18.52 84.9866 17.96 84.8266 17.64C84.6666 17.31 84.2966 17.145 83.7166 17.145C83.1466 17.145 82.7416 17.34 82.5016 17.73C82.2616 18.11 82.1116 18.64 82.0516 19.32H85.0666ZM91.7783 18.51C91.7783 17.6 91.3633 17.145 90.5333 17.145C90.0033 17.145 89.2883 17.285 88.3883 17.565L87.9083 16.62C88.7683 16.17 89.6983 15.945 90.6983 15.945C91.9083 15.945 92.6483 16.305 92.9183 17.025C93.0583 17.395 93.1283 17.885 93.1283 18.495V21.69C93.1283 22.41 93.3333 22.98 93.7433 23.4L92.9483 24.18C92.7683 24.07 92.5833 23.91 92.3933 23.7C92.2133 23.48 92.0883 23.265 92.0183 23.055H91.9733C91.4233 23.805 90.6633 24.18 89.6933 24.18C88.2633 24.18 87.5483 23.435 87.5483 21.945C87.5483 20.625 88.4783 19.83 90.3383 19.56L91.7783 19.35V18.51ZM88.9883 22.11C88.9883 22.69 89.3433 22.98 90.0533 22.98C90.7733 22.98 91.3483 22.73 91.7783 22.23V20.4C90.5183 20.57 89.7433 20.77 89.4533 21C89.1433 21.25 88.9883 21.62 88.9883 22.11ZM99.78 16.425C99.79 16.425 99.805 16.42 99.825 16.41L99.78 16.02V12.825L101.13 12.675V21.84L101.25 23.925L100.155 24.075L99.99 23.16H99.93C99.33 23.84 98.61 24.18 97.77 24.18C96.93 24.18 96.26 23.885 95.76 23.295C95.26 22.695 95.01 21.635 95.01 20.115C95.01 19.495 95.08 18.935 95.22 18.435C95.36 17.935 95.54 17.535 95.76 17.235C95.98 16.935 96.235 16.685 96.525 16.485C97.035 16.125 97.605 15.945 98.235 15.945C98.865 15.945 99.38 16.105 99.78 16.425ZM98.37 17.145C98.1 17.145 97.87 17.18 97.68 17.25C97.49 17.31 97.295 17.43 97.095 17.61C96.665 18 96.45 18.795 96.45 19.995C96.45 21.185 96.585 21.98 96.855 22.38C97.135 22.78 97.58 22.98 98.19 22.98C98.53 22.98 98.845 22.905 99.135 22.755C99.425 22.595 99.64 22.425 99.78 22.245V17.565C99.39 17.285 98.92 17.145 98.37 17.145ZM104.643 14.475C104.643 15.145 104.318 15.92 103.668 16.8L102.918 16.26C103.288 15.66 103.473 15.16 103.473 14.76C103.473 14.61 103.328 14.1 103.038 13.23L104.178 12.72C104.188 12.75 104.243 12.9 104.343 13.17C104.543 13.66 104.643 14.095 104.643 14.475ZM105.848 18.21C105.848 17.52 106.088 16.97 106.568 16.56C107.058 16.15 107.688 15.945 108.458 15.945C109.228 15.945 109.828 16.135 110.258 16.515C110.688 16.885 110.933 17.385 110.993 18.015L109.598 18.3C109.578 17.93 109.458 17.64 109.238 17.43C109.018 17.22 108.733 17.115 108.383 17.115C108.033 17.115 107.763 17.2 107.573 17.37C107.383 17.53 107.288 17.73 107.288 17.97C107.288 18.21 107.328 18.405 107.408 18.555C107.488 18.705 107.618 18.84 107.798 18.96C108.038 19.13 108.373 19.305 108.803 19.485C109.233 19.655 109.548 19.795 109.748 19.905C109.948 20.005 110.178 20.15 110.438 20.34C110.928 20.69 111.173 21.195 111.173 21.855C111.173 22.505 110.913 23.055 110.393 23.505C109.873 23.955 109.188 24.18 108.338 24.18C107.488 24.18 106.643 23.91 105.803 23.37L106.328 22.38C107.268 22.78 107.993 22.98 108.503 22.98C109.323 22.98 109.733 22.66 109.733 22.02C109.733 21.73 109.603 21.49 109.343 21.3C109.093 21.1 108.753 20.91 108.323 20.73C107.893 20.54 107.573 20.395 107.363 20.295C107.163 20.185 106.928 20.03 106.658 19.83C106.118 19.43 105.848 18.89 105.848 18.21ZM117.14 16.965C117.71 16.285 118.43 15.945 119.3 15.945C120.17 15.945 120.845 16.255 121.325 16.875C121.815 17.485 122.06 18.55 122.06 20.07C122.06 20.84 121.955 21.51 121.745 22.08C121.545 22.64 121.28 23.065 120.95 23.355C120.32 23.905 119.64 24.18 118.91 24.18C118.18 24.18 117.645 24.02 117.305 23.7L117.26 23.715L117.305 24.09V26.76L115.955 26.91V18.285L115.835 16.2L116.93 16.05L117.08 16.965H117.14ZM117.305 22.59C117.735 22.85 118.235 22.98 118.805 22.98C119.375 22.98 119.82 22.77 120.14 22.35C120.46 21.92 120.62 21.13 120.62 19.98C120.62 18.59 120.36 17.72 119.84 17.37C119.62 17.22 119.35 17.145 119.03 17.145C118.27 17.145 117.695 17.395 117.305 17.895V22.59ZM127.133 15.945C127.393 15.945 127.588 15.97 127.718 16.02C127.858 16.06 127.973 16.095 128.063 16.125C128.153 16.145 128.208 16.16 128.228 16.17L127.988 17.52C127.688 17.42 127.328 17.37 126.908 17.37C126.498 17.37 126.123 17.55 125.783 17.91C125.453 18.26 125.288 18.685 125.288 19.185V24H123.938V18.285L123.818 16.2L124.913 16.05L125.078 17.565H125.138C125.308 17.075 125.563 16.685 125.903 16.395C126.253 16.095 126.663 15.945 127.133 15.945ZM129.642 17.22C129.902 16.83 130.262 16.52 130.722 16.29C131.192 16.06 131.737 15.945 132.357 15.945C132.987 15.945 133.512 16.065 133.932 16.305C134.362 16.545 134.677 16.88 134.877 17.31C135.227 18.08 135.402 19.025 135.402 20.145C135.402 21.225 135.152 22.14 134.652 22.89C134.392 23.29 134.027 23.605 133.557 23.835C133.097 24.065 132.552 24.18 131.922 24.18C131.302 24.18 130.777 24.06 130.347 23.82C129.927 23.58 129.617 23.24 129.417 22.8C129.067 22.04 128.892 21.1 128.892 19.98C128.892 18.9 129.142 17.98 129.642 17.22ZM133.467 17.685C133.337 17.525 133.157 17.395 132.927 17.295C132.697 17.195 132.417 17.145 132.087 17.145C131.767 17.145 131.492 17.205 131.262 17.325C131.032 17.445 130.857 17.59 130.737 17.76C130.617 17.92 130.527 18.15 130.467 18.45C130.377 18.9 130.332 19.385 130.332 19.905C130.332 20.425 130.342 20.81 130.362 21.06C130.382 21.3 130.427 21.55 130.497 21.81C130.577 22.07 130.687 22.28 130.827 22.44C131.127 22.8 131.587 22.98 132.207 22.98C132.527 22.98 132.802 22.92 133.032 22.8C133.262 22.68 133.437 22.54 133.557 22.38C133.677 22.21 133.767 21.975 133.827 21.675C133.917 21.225 133.962 20.74 133.962 20.22C133.962 19.7 133.952 19.32 133.932 19.08C133.912 18.83 133.862 18.575 133.782 18.315C133.712 18.055 133.607 17.845 133.467 17.685ZM141.528 16.425C141.538 16.425 141.553 16.42 141.573 16.41L141.528 16.02V12.825L142.878 12.675V21.84L142.998 23.925L141.903 24.075L141.738 23.16H141.678C141.078 23.84 140.358 24.18 139.518 24.18C138.678 24.18 138.008 23.885 137.508 23.295C137.008 22.695 136.758 21.635 136.758 20.115C136.758 19.495 136.828 18.935 136.968 18.435C137.108 17.935 137.288 17.535 137.508 17.235C137.728 16.935 137.983 16.685 138.273 16.485C138.783 16.125 139.353 15.945 139.983 15.945C140.613 15.945 141.128 16.105 141.528 16.425ZM140.118 17.145C139.848 17.145 139.618 17.18 139.428 17.25C139.238 17.31 139.043 17.43 138.843 17.61C138.413 18 138.198 18.795 138.198 19.995C138.198 21.185 138.333 21.98 138.603 22.38C138.883 22.78 139.328 22.98 139.938 22.98C140.278 22.98 140.593 22.905 140.883 22.755C141.173 22.595 141.388 22.425 141.528 22.245V17.565C141.138 17.285 140.668 17.145 140.118 17.145ZM147.546 24.18C146.866 24.18 146.306 23.97 145.866 23.55C145.426 23.13 145.206 22.48 145.206 21.6V16.185L146.556 16.05V21.435C146.556 22.465 147.041 22.98 148.011 22.98C148.651 22.98 149.206 22.745 149.676 22.275V16.185L151.026 16.05V21.84L151.146 23.925L150.051 24.075L149.886 23.16H149.826C149.256 23.84 148.496 24.18 147.546 24.18ZM152.901 20.115C152.901 18.865 153.191 17.86 153.771 17.1C154.361 16.33 155.141 15.945 156.111 15.945C157.091 15.945 157.741 16.175 158.061 16.635C158.391 17.085 158.556 17.745 158.556 18.615L157.206 18.705C157.206 18.135 157.121 17.735 156.951 17.505C156.781 17.265 156.436 17.145 155.916 17.145C154.866 17.145 154.341 18.12 154.341 20.07C154.341 22.01 155.011 22.98 156.351 22.98C156.941 22.98 157.566 22.815 158.226 22.485L158.631 23.385C158.381 23.605 158.026 23.795 157.566 23.955C157.106 24.105 156.611 24.18 156.081 24.18C153.961 24.18 152.901 22.825 152.901 20.115ZM161.885 16.125H164.03L163.85 17.265H161.885V20.925C161.885 21.705 161.95 22.25 162.08 22.56C162.22 22.86 162.53 23.01 163.01 23.01C163.28 23.01 163.545 22.955 163.805 22.845L164.195 23.7C164.075 23.82 163.855 23.93 163.535 24.03C163.215 24.13 162.925 24.18 162.665 24.18C161.785 24.18 161.21 23.935 160.94 23.445C160.67 22.955 160.535 22.145 160.535 21.015V17.265H159.245L159.395 16.215L160.535 16.125L160.61 14.475L161.885 14.1V16.125ZM166.904 24H165.554V16.2L166.904 16.05V24ZM166.169 15.615C165.559 15.615 165.254 15.275 165.254 14.595C165.254 14.345 165.334 14.13 165.494 13.95C165.664 13.77 165.924 13.68 166.274 13.68C166.884 13.68 167.189 14.02 167.189 14.7C167.189 14.95 167.104 15.165 166.934 15.345C166.774 15.525 166.519 15.615 166.169 15.615ZM169.529 17.22C169.789 16.83 170.149 16.52 170.609 16.29C171.079 16.06 171.624 15.945 172.244 15.945C172.874 15.945 173.399 16.065 173.819 16.305C174.249 16.545 174.564 16.88 174.764 17.31C175.114 18.08 175.289 19.025 175.289 20.145C175.289 21.225 175.039 22.14 174.539 22.89C174.279 23.29 173.914 23.605 173.444 23.835C172.984 24.065 172.439 24.18 171.809 24.18C171.189 24.18 170.664 24.06 170.234 23.82C169.814 23.58 169.504 23.24 169.304 22.8C168.954 22.04 168.779 21.1 168.779 19.98C168.779 18.9 169.029 17.98 169.529 17.22ZM173.354 17.685C173.224 17.525 173.044 17.395 172.814 17.295C172.584 17.195 172.304 17.145 171.974 17.145C171.654 17.145 171.379 17.205 171.149 17.325C170.919 17.445 170.744 17.59 170.624 17.76C170.504 17.92 170.414 18.15 170.354 18.45C170.264 18.9 170.219 19.385 170.219 19.905C170.219 20.425 170.229 20.81 170.249 21.06C170.269 21.3 170.314 21.55 170.384 21.81C170.464 22.07 170.574 22.28 170.714 22.44C171.014 22.8 171.474 22.98 172.094 22.98C172.414 22.98 172.689 22.92 172.919 22.8C173.149 22.68 173.324 22.54 173.444 22.38C173.564 22.21 173.654 21.975 173.714 21.675C173.804 21.225 173.849 20.74 173.849 20.22C173.849 19.7 173.839 19.32 173.819 19.08C173.799 18.83 173.749 18.575 173.669 18.315C173.599 18.055 173.494 17.845 173.354 17.685ZM180.561 15.945C181.301 15.945 181.891 16.16 182.331 16.59C182.771 17.01 182.991 17.68 182.991 18.6V24H181.641V18.69C181.641 17.66 181.126 17.145 180.096 17.145C179.796 17.145 179.501 17.22 179.211 17.37C178.921 17.51 178.691 17.675 178.521 17.865V24H177.171V18.285L177.051 16.2L178.146 16.05L178.341 16.935H178.401C178.581 16.705 178.851 16.485 179.211 16.275C179.581 16.055 180.031 15.945 180.561 15.945Z" fill="white" fill-opacity="0.5"/>
</svg>
