<svg width="26" height="26" viewBox="0 0 26 26" fill="none" xmlns="http://www.w3.org/2000/svg">
<g clip-path="url(#clip0_665_373)">
<path d="M12.998 25.987C20.1778 25.987 26 20.1669 26 12.9935C26 5.81615 20.1778 0 12.998 0C5.82216 0 0 5.81615 0 12.9935C0 20.1669 5.82216 25.987 12.998 25.987ZM12.998 24.3067C6.7422 24.3067 1.68088 19.2472 1.68088 12.9935C1.68088 6.73585 6.7422 1.67629 12.998 1.67629C19.2578 1.67629 24.3191 6.73585 24.3191 12.9935C24.3191 19.2472 19.2578 24.3067 12.998 24.3067Z" fill="white"/>
<path d="M7.43813 19.4724C7.96288 19.4724 8.40002 19.0354 8.40002 18.5108C8.40002 17.9863 7.96288 17.5493 7.43813 17.5493C6.9134 17.5493 6.47626 17.9863 6.47626 18.5108C6.47626 19.0354 6.9134 19.4724 7.43813 19.4724ZM5.13142 13.9551C5.65618 13.9551 6.09329 13.5181 6.09329 12.9936C6.09329 12.469 5.65618 12.032 5.13142 12.032C4.6067 12.032 4.16956 12.469 4.16956 12.9936C4.16956 13.5181 4.6067 13.9551 5.13142 13.9551ZM7.43813 8.43783C7.96288 8.43783 8.40002 8.00084 8.40002 7.4763C8.40002 6.94278 7.96288 6.51474 7.43813 6.51474C6.9134 6.51474 6.47626 6.94278 6.47626 7.4763C6.47626 8.00084 6.9134 8.43783 7.43813 8.43783ZM12.9891 6.1051C13.5178 6.1051 13.9509 5.67214 13.9509 5.14356C13.9509 4.61899 13.5178 4.18604 12.9891 4.18604C12.4643 4.18604 12.0312 4.61899 12.0312 5.14356C12.0312 5.67214 12.4643 6.1051 12.9891 6.1051ZM20.8328 13.9551C21.3576 13.9551 21.7947 13.5181 21.7947 12.9936C21.7947 12.469 21.3576 12.032 20.8328 12.032C20.3081 12.032 19.8709 12.469 19.8709 12.9936C19.8709 13.5181 20.3081 13.9551 20.8328 13.9551ZM18.5261 19.4724C19.0508 19.4724 19.488 19.0354 19.488 18.5108C19.488 17.9863 19.0508 17.5493 18.5261 17.5493C18.0014 17.5493 17.5642 17.9863 17.5642 18.5108C17.5642 19.0354 18.0014 19.4724 18.5261 19.4724ZM11.0954 14.7156C11.8494 15.4693 12.9631 15.4693 13.7221 14.7156C13.8495 14.5882 14.0515 14.3067 14.1829 14.1356L18.7142 7.788C18.8943 7.54133 18.8576 7.29556 18.6923 7.12132C18.5179 6.96404 18.2632 6.91933 18.0164 7.09046L11.6667 11.6291C11.4954 11.7515 11.2228 11.9535 11.0954 12.0849C10.3405 12.8395 10.3405 13.9609 11.0954 14.7156Z" fill="white"/>
</g>
<defs>
<clipPath id="clip0_665_373">
<rect width="26" height="26" fill="white"/>
</clipPath>
</defs>
</svg>
