<svg width="32" height="32" viewBox="0 0 32 32" fill="none" xmlns="http://www.w3.org/2000/svg">
<g clip-path="url(#clip0_669_28)">
<path d="M1.68401 23.5891L8.23992 30.0795C10.4421 32.2489 13.0522 32.3265 15.1421 30.2523L31.0055 14.4915C32.3412 13.1821 32.3299 11.292 30.9715 9.94875L21.9668 1.02285C20.6135 -0.325404 18.7204 -0.342863 17.3898 0.982875L1.52125 16.7224C-0.5686 18.8078 -0.496592 21.4035 1.68401 23.5891ZM3.12497 22.1539C1.854 20.8812 1.79333 19.3126 3.02403 18.085L18.7513 2.47553C19.2858 1.94508 20.0305 1.94508 20.5536 2.46427L29.5242 11.3677C30.0423 11.8818 30.0309 12.6148 29.5129 13.1289L13.7692 28.7546C12.5436 29.9823 10.9632 29.9272 9.68089 28.6545L3.12497 22.1539ZM3.99251 15.7357L16.1515 27.8249L17.4387 26.5423L5.29735 14.4918L3.99251 15.7357Z" fill="#FB8B25"/>
</g>
<defs>
<clipPath id="clip0_669_28">
<rect width="32" height="32" fill="white"/>
</clipPath>
</defs>
</svg>
