<svg width="33" height="33" viewBox="0 0 33 33" fill="none" xmlns="http://www.w3.org/2000/svg">
<path d="M25.4447 16.5627V7.22941C25.4447 5.75608 24.2513 4.56274 22.778 4.56274H6.77799C5.30466 4.56274 4.11133 5.75608 4.11133 7.22941V23.2294C4.11133 24.7027 5.30466 25.8961 6.77799 25.8961H16.1113" stroke="white" stroke-width="1.5" stroke-linecap="round" stroke-linejoin="round"/>
<path fill-rule="evenodd" clip-rule="evenodd" d="M27.6193 26.1854L25.734 28.0707C25.2127 28.592 24.3687 28.592 23.8487 28.0707L13.8073 18.0294C13.5567 17.78 13.4167 17.44 13.4167 17.0867V13.868H16.6353C16.9887 13.868 17.3287 14.008 17.578 14.2587L27.6193 24.3C28.1407 24.82 28.1407 25.664 27.6193 26.1854V26.1854Z" stroke="white" stroke-width="1.5" stroke-linecap="round" stroke-linejoin="round"/>
<path d="M25.23 21.9161L21.4567 25.6761" stroke="white" stroke-width="1.5" stroke-linecap="round" stroke-linejoin="round"/>
</svg>
