<svg width="33" height="32" viewBox="0 0 33 32" fill="none" xmlns="http://www.w3.org/2000/svg">
<path fill-rule="evenodd" clip-rule="evenodd" d="M27.7112 5.72242C26.6672 4.67842 24.9939 4.62376 23.8832 5.59442L13.1672 14.9705C12.0059 15.9865 11.9472 17.7718 13.0379 18.8625L14.5699 20.3945C15.6606 21.4851 17.4472 21.4251 18.4619 20.2651L27.8379 9.54909C28.8099 8.43976 28.7539 6.76642 27.7112 5.72242Z" stroke="#8B8B8B" stroke-width="1.5" stroke-linecap="round" stroke-linejoin="round"/>
<path d="M15.2434 13.1597L20.2834 18.1997" stroke="#8B8B8B" stroke-width="1.5" stroke-linecap="round" stroke-linejoin="round"/>
<path fill-rule="evenodd" clip-rule="evenodd" d="M5.54862 27.0972H10.486C14.466 27.0972 16.4593 22.2852 13.6447 19.4706C11.5753 17.4012 8.06062 18.1626 7.03396 20.9026L5.00462 26.3132C4.86329 26.6932 5.14329 27.0972 5.54862 27.0972Z" stroke="#8B8B8B" stroke-width="1.5" stroke-linecap="round" stroke-linejoin="round"/>
</svg>
