<svg width="19" height="28" viewBox="0 0 19 28" fill="none" xmlns="http://www.w3.org/2000/svg">
<g clip-path="url(#clip0_726_90)">
<path d="M18.5639 11.4278V22.061C18.5639 24.1121 17.5005 25.1782 15.4206 25.1782H3.14337C1.06346 25.1782 0 24.1293 0 22.061V11.4278C0 9.35931 1.06346 8.31055 3.14337 8.31055H6.84271V9.63069H3.168C1.96612 9.63069 1.32013 10.262 1.32013 11.4933V21.9955C1.32013 23.2267 1.96612 23.8581 3.168 23.8581H15.3886C16.5666 23.8581 17.2471 23.2267 17.2471 21.9955V11.4933C17.2471 10.262 16.5666 9.63069 15.3886 9.63069H11.7139V8.31055H15.4206C17.5005 8.31055 18.5639 9.37658 18.5639 11.4278Z" fill="white"/>
<path d="M9.2799 16.9705C9.63263 16.9705 9.93462 16.6832 9.93462 16.3378V5.10635L9.88716 3.5638L10.567 4.26565L12.4471 6.22676C12.5634 6.3577 12.741 6.42979 12.8973 6.42979C13.2361 6.42979 13.494 6.17601 13.494 5.84862C13.494 5.67022 13.4285 5.53928 13.3049 5.41569L9.75292 1.94209C9.59254 1.78171 9.45094 1.73096 9.2799 1.73096C9.11622 1.73096 8.97129 1.78171 8.80355 1.94209L5.25562 5.41569C5.12874 5.53928 5.0592 5.67022 5.0592 5.84862C5.0592 6.17601 5.30637 6.42979 5.64848 6.42979C5.8048 6.42979 5.9865 6.3577 6.10604 6.22676L7.99026 4.26565L8.67667 3.56048L8.62921 5.10635V16.3378C8.62921 16.6832 8.92384 16.9705 9.2799 16.9705Z" fill="white"/>
</g>
<defs>
<clipPath id="clip0_726_90">
<rect width="18.5639" height="28" fill="white"/>
</clipPath>
</defs>
</svg>
