<svg width="32" height="32" viewBox="0 0 32 32" fill="none" xmlns="http://www.w3.org/2000/svg">
<path d="M7.02417 6.15193V25.8432C7.02565 26.2467 7.13986 26.6417 7.35391 26.9837C7.56797 27.3258 7.87336 27.6011 8.23561 27.7788C8.59786 27.9565 9.00256 28.0294 9.40404 27.9893C9.80552 27.9492 10.1878 27.7977 10.5077 27.5518L24.1427 16.9486C24.4129 16.738 24.6292 16.4662 24.7738 16.1557C24.9184 15.8451 24.9872 15.5046 24.9746 15.1623C24.9619 14.8199 24.8681 14.4855 24.7008 14.1865C24.5336 13.8875 24.2978 13.6325 24.0127 13.4424L10.3778 4.35578C10.0523 4.14182 9.67511 4.01966 9.28598 4.00218C8.89684 3.9847 8.51019 4.07255 8.16681 4.25645C7.82343 4.44036 7.53604 4.71352 7.33493 5.04712C7.13383 5.38072 7.02647 5.7624 7.02417 6.15193Z" fill="#8B8B8B" fill-opacity="0.3"/>
</svg>
