<svg width="23" height="28" viewBox="0 0 23 28" fill="none" xmlns="http://www.w3.org/2000/svg">
<g clip-path="url(#clip0_726_113)">
<path d="M16.8019 2.73405L17.3217 5.68279H15.939L15.4672 2.99715C15.24 1.76222 14.4758 1.21678 13.2215 1.43976L3.00926 3.24012C1.75489 3.45969 1.22127 4.23914 1.43662 5.47066L4.0901 20.5274C4.28644 21.6268 4.93802 22.198 5.9977 22.1239V23.5073C4.19728 23.6549 3.09792 22.735 2.74781 20.7981L0.0832927 5.67849C-0.290691 3.54436 0.596786 2.27948 2.70382 1.90549L13.0594 0.0787997C15.163 -0.284128 16.4279 0.607549 16.8019 2.73405Z" fill="#8B8B8B"/>
<path d="M22.9714 8.94135C22.9714 6.7851 21.8841 5.68262 19.7396 5.68262H9.2259C7.09256 5.68262 5.99768 6.7851 5.99768 8.94135V24.2923C5.99768 26.4485 7.0994 27.5511 9.2259 27.5511H19.7396C21.8661 27.5511 22.9714 26.4485 22.9714 24.2923V8.94135ZM21.6027 8.9745V24.2667C21.6027 25.4804 20.9483 26.1825 19.6718 26.1825H9.3014C8.0249 26.1825 7.36284 25.4804 7.36284 24.2667V8.9745C7.36284 7.7251 8.0249 7.04777 9.3014 7.04777H19.6718C20.9483 7.04777 21.6027 7.7251 21.6027 8.9745Z" fill="#8B8B8B"/>
</g>
<defs>
<clipPath id="clip0_726_113">
<rect width="22.973" height="28" fill="white"/>
</clipPath>
</defs>
</svg>
