<svg width="32" height="33" viewBox="0 0 32 33" fill="none" xmlns="http://www.w3.org/2000/svg">
<path d="M15.9988 8.99707C15.7961 8.99707 15.6321 9.16107 15.6348 9.36373C15.6348 9.5664 15.7988 9.7304 16.0014 9.7304C16.2041 9.7304 16.3681 9.5664 16.3681 9.36373C16.3654 9.16107 16.2028 8.99707 15.9988 8.99707Z" stroke="#8B8B8B" stroke-width="1.5" stroke-linecap="round" stroke-linejoin="round"/>
<path d="M9.232 16.4959C9.232 16.2933 9.068 16.1293 8.86667 16.1319C8.664 16.1319 8.5 16.2959 8.5 16.4986C8.5 16.7013 8.664 16.8653 8.86667 16.8653C9.06933 16.8653 9.232 16.6999 9.232 16.4959Z" stroke="#8B8B8B" stroke-width="1.5" stroke-linecap="round" stroke-linejoin="round"/>
<path d="M21.3027 11.1933C21.16 11.0506 20.928 11.0506 20.7867 11.1946C20.644 11.3373 20.644 11.5693 20.7867 11.7119C20.9293 11.8546 21.1613 11.8546 21.304 11.7119C21.4467 11.5679 21.4467 11.3373 21.3027 11.1933Z" stroke="#8B8B8B" stroke-width="1.5" stroke-linecap="round" stroke-linejoin="round"/>
<path d="M11.2133 21.2826C11.0707 21.1399 10.8387 21.1399 10.6973 21.2839C10.5547 21.4266 10.5547 21.6586 10.6973 21.8013C10.84 21.9439 11.072 21.9439 11.2147 21.8013C11.3573 21.6586 11.3573 21.4266 11.2133 21.2826Z" stroke="#8B8B8B" stroke-width="1.5" stroke-linecap="round" stroke-linejoin="round"/>
<path d="M11.2146 11.7109C11.3572 11.5682 11.3572 11.3362 11.2132 11.1949C11.0706 11.0522 10.8386 11.0522 10.6959 11.1949C10.5532 11.3376 10.5532 11.5696 10.6959 11.7122C10.8386 11.8549 11.0706 11.8549 11.2146 11.7109Z" stroke="#8B8B8B" stroke-width="1.5" stroke-linecap="round" stroke-linejoin="round"/>
<path fill-rule="evenodd" clip-rule="evenodd" d="M15.9999 28.4974C9.25989 28.4974 3.81722 22.9401 4.00522 16.1574C4.17855 9.89612 9.39855 4.67612 15.6599 4.50278C22.4426 4.31478 27.9999 9.75744 27.9999 16.4974V17.8308C27.9999 19.3041 26.8066 20.4974 25.3332 20.4974H22.5826C20.8106 20.4974 19.5319 22.1934 20.0186 23.8961L20.3612 25.0974C20.8492 26.8014 19.5692 28.4974 17.7986 28.4974H15.9999Z" stroke="#8B8B8B" stroke-width="1.5" stroke-linecap="round" stroke-linejoin="round"/>
</svg>
